<svg version="1.1" id="Layer_1" xmlns="http://www.w3.org/2000/svg" xmlns:xlink="http://www.w3.org/1999/xlink" x="0px" y="0px"
	 width="100%" viewBox="0 0 512 512" enable-background="new 0 0 512 512" xml:space="preserve">
<path fill="#FFFFFF" opacity="1.000000" stroke="none" 
	d="
M270.000000,513.000000 
	C180.021835,513.000000 90.543671,513.000000 1.032752,513.000000 
	C1.032752,342.396820 1.032752,171.793610 1.032752,1.095206 
	C171.561523,1.095206 342.123108,1.095206 512.842346,1.095206 
	C512.842346,171.666550 512.842346,342.333252 512.842346,513.000000 
	C432.126923,513.000000 351.313446,513.000000 270.000000,513.000000 
M233.999634,474.011566 
	C233.999634,474.011566 234.029648,474.071136 234.818192,473.988678 
	C237.130417,473.775116 241.328354,473.907379 241.441483,473.290497 
	C242.063721,469.897430 244.508347,466.126892 241.022842,462.110199 
	C241.067215,461.127472 241.111603,460.144714 241.739517,458.635254 
	C242.866806,451.383850 244.535919,444.163696 242.139969,436.819611 
	C241.198746,433.934601 240.618011,430.931946 239.973053,427.273376 
	C239.991287,426.557129 240.009521,425.840881 240.495468,424.920258 
	C240.625305,424.625885 240.755142,424.331543 240.998322,423.352417 
	C240.975571,422.891113 240.952835,422.429840 241.210754,421.627106 
	C241.110855,421.098663 241.010956,420.570190 240.992416,419.318481 
	C241.005188,418.590790 241.017960,417.863098 241.493713,416.921661 
	C241.622894,416.627258 241.752090,416.332825 241.994858,415.352509 
	C241.971634,414.890442 241.948425,414.428375 242.208435,413.626862 
	C242.108505,413.098907 242.008560,412.570984 241.991989,411.408264 
	C242.007996,410.981781 242.024017,410.555267 242.571152,409.826660 
	C242.685867,408.565796 242.800583,407.304901 243.034241,405.266754 
	C243.368134,403.229370 243.702042,401.191986 244.494476,398.926880 
	C244.623688,398.630737 244.752899,398.334625 245.000443,397.266968 
	C245.011444,396.226471 245.022430,395.185974 245.489319,393.921753 
	C245.617371,393.628235 245.745422,393.334717 245.993301,392.187134 
	C245.944855,388.109314 245.896408,384.031464 245.810623,379.459351 
	C245.624359,379.163940 245.362137,378.972626 245.006149,378.245575 
	C244.949158,377.823944 244.892166,377.402313 245.051193,376.312378 
	C245.846497,371.125061 246.549942,365.921478 247.466415,360.755646 
	C248.188293,356.686646 249.583618,352.702423 249.963989,348.613953 
	C251.141006,335.962463 251.544785,323.219757 255.241455,310.925079 
	C255.722687,309.324554 256.188538,307.719391 257.079559,304.699615 
	C257.761017,307.161621 258.114166,308.051971 258.246582,308.973999 
	C260.176208,322.410034 262.293854,335.824219 263.909973,349.298401 
	C265.064240,358.922058 270.760498,367.804352 268.155212,378.765686 
	C267.882568,381.393616 267.073151,384.096283 267.427002,386.636932 
	C269.299835,400.082428 271.465302,413.487122 273.247650,427.773346 
	C273.372955,435.598511 269.288788,442.846680 270.923828,451.064728 
	C272.243378,457.696869 271.715515,464.700958 271.953827,471.541901 
	C272.067352,474.800537 273.954926,475.376831 276.657928,474.834229 
	C277.763428,474.612274 278.856506,474.328644 279.982605,474.029938 
	C279.982605,474.029938 279.935760,474.028564 280.227020,474.571838 
	C281.237305,474.400085 282.247589,474.228333 283.637299,474.068085 
	C283.637299,474.068085 284.006958,473.981689 284.499603,474.031067 
	C284.499603,474.031067 284.991943,473.978912 285.568451,473.843323 
	C286.355743,473.455261 287.255432,473.201202 287.908691,472.653381 
	C289.665894,471.179749 291.317841,469.580597 293.552856,467.517975 
	C292.825653,464.651367 292.444458,461.635620 291.288513,458.953796 
	C289.640076,455.129456 287.423645,451.549927 285.615143,447.080017 
	C285.582092,441.475739 284.782623,435.745850 285.675995,430.293365 
	C287.520264,419.036835 290.406311,407.955475 292.600281,396.750427 
	C294.494202,387.077728 295.057068,377.387634 291.036621,367.070312 
	C290.135010,355.853149 289.879089,344.874390 293.087189,333.695740 
	C297.990509,316.610291 299.333832,298.905212 298.760468,280.253754 
	C298.613037,279.144409 298.465576,278.035034 298.605408,276.288391 
	C298.373627,275.207703 298.141846,274.126984 297.996704,272.275696 
	C297.953217,271.503723 297.909729,270.731781 297.807831,269.441010 
	C297.519714,269.256226 297.231567,269.071472 296.836975,268.650879 
	C296.836975,268.650879 296.613953,268.519653 296.669037,268.108521 
	C296.625397,267.781738 296.439697,267.600708 296.757629,267.276062 
	C296.505676,264.517059 296.253723,261.758087 296.018982,258.326385 
	C295.973511,257.881073 295.928009,257.435730 295.894104,256.140594 
	C294.967590,252.283005 294.041046,248.425430 293.163300,244.024231 
	C293.080109,243.671539 292.996918,243.318832 292.918579,242.398911 
	C292.608704,241.946289 292.298798,241.493683 291.949982,240.500641 
	C291.894623,240.328720 291.839294,240.156784 291.781036,239.238586 
	C291.146606,236.497330 290.512146,233.756058 289.993164,230.141876 
	C289.956726,228.090027 289.920288,226.038177 289.978851,223.163177 
	C289.694244,220.136108 289.409607,217.109055 289.734344,213.629333 
	C292.502014,203.227951 295.217743,192.812378 298.052429,182.429306 
	C300.718384,172.664276 308.134705,168.455490 317.310486,166.927917 
	C322.180634,166.117157 327.226654,165.956772 332.175262,166.104568 
	C343.757660,166.450470 355.357941,167.937775 366.897308,167.510986 
	C379.417938,167.047943 391.860962,164.753922 404.370789,163.623001 
	C411.213318,163.004425 418.124023,163.139557 425.468109,163.513138 
	C425.987213,163.908356 426.470337,164.583847 427.030914,164.655823 
	C433.212830,165.449448 439.395508,166.396484 445.606415,166.680710 
	C446.963745,166.742813 448.433502,164.348923 449.885101,162.504272 
	C449.872223,162.310410 449.859344,162.116562 450.805634,161.861481 
	C454.635986,161.852264 458.467163,161.790527 462.296417,161.851486 
	C465.054779,161.895401 466.321716,160.667923 465.569763,157.306030 
	C461.005676,156.574326 456.456787,155.724731 451.874664,155.132507 
	C436.800446,153.184204 421.729187,151.197418 406.628204,149.476028 
	C392.021881,147.811020 377.394592,146.287964 362.748077,145.034439 
	C355.173370,144.386154 347.537018,144.457642 339.489471,144.067368 
	C339.489471,144.067368 339.030151,144.088242 338.209137,143.977798 
	C336.835632,143.945175 335.462158,143.912552 333.620575,143.302429 
	C329.706909,142.044693 325.765869,140.865295 321.886414,139.509674 
	C316.887451,137.762863 312.054199,135.397949 306.941864,134.150589 
	C297.353088,131.811020 287.615143,130.082840 277.441711,127.621086 
	C271.588806,126.209549 271.941315,121.296646 271.631683,116.035912 
	C271.721191,113.361183 271.810730,110.686447 272.106201,107.326607 
	C272.723114,105.832481 273.339996,104.338356 274.697632,102.998466 
	C276.073975,100.315872 277.450317,97.633278 278.918671,94.151512 
	C277.649963,87.901588 276.531189,81.615166 275.023438,75.423454 
	C274.556213,73.504753 273.032104,71.843407 271.762665,69.424812 
	C269.855042,67.897202 267.947449,66.369591 265.638184,64.266380 
	C260.145630,60.873184 254.604630,60.481667 248.309021,64.041603 
	C246.208847,66.049065 244.108673,68.056526 241.389923,70.385353 
	C238.287598,75.030945 236.917984,80.046738 237.777802,85.669777 
	C237.945633,86.767395 237.214890,88.007942 236.876556,89.176178 
	C236.318283,91.103806 235.742004,93.026215 235.111862,95.720398 
	C236.464020,98.296852 234.931061,102.870438 240.619949,103.257088 
	C241.113205,104.841927 241.606461,106.426773 242.001648,108.902145 
	C242.204773,111.565712 242.407898,114.229279 242.309616,117.711517 
	C243.231064,123.801498 239.608139,126.802299 233.895416,128.890213 
	C214.980988,131.723511 196.666336,136.752258 178.141434,143.954132 
	C177.084518,143.998856 176.027618,144.043594 174.512085,144.067184 
	C174.512085,144.067184 174.073578,144.203110 173.224609,144.160110 
	C169.606491,144.472092 165.993973,144.927811 162.369202,145.069443 
	C150.947632,145.515823 139.459564,145.225983 128.111465,146.362091 
	C110.706184,148.104584 93.378754,150.675415 76.052391,153.134918 
	C66.639175,154.471146 57.296406,156.303635 47.919117,158.744675 
	C49.251724,159.775360 50.505684,161.544327 51.931904,161.696274 
	C55.968018,162.126236 60.074684,161.893967 64.115128,162.503159 
	C64.126419,162.696793 64.137711,162.890411 64.089378,163.813782 
	C65.936790,164.835342 67.753731,166.645523 69.637802,166.718323 
	C73.879471,166.882263 78.198387,166.445557 82.398262,165.735260 
	C84.689621,165.347733 86.802177,163.902985 89.814674,162.801941 
	C98.001701,163.315353 106.204887,163.649719 114.371719,164.386856 
	C124.905144,165.337631 135.387955,167.143829 145.933426,167.569717 
	C153.816452,167.888123 161.758057,166.270187 169.684738,166.125351 
	C178.295303,165.968048 186.935822,166.261353 195.531662,166.833466 
	C203.555298,167.367493 211.318695,170.632324 214.031342,178.170593 
	C218.433563,190.404114 220.883301,203.340256 224.024673,216.875107 
	C223.362488,224.926346 222.700302,232.977600 221.497055,241.492279 
	C220.370529,246.658340 219.244003,251.824387 217.960785,257.790314 
	C217.370483,261.537109 216.780167,265.283936 216.072464,269.490601 
	C216.072464,269.490601 216.134888,269.960999 216.011520,270.725494 
	C216.037811,271.498077 216.064102,272.270660 215.710266,273.545197 
	C215.699249,274.340027 215.688232,275.134888 215.374680,276.740875 
	C215.339645,278.186584 215.304611,279.632294 215.072037,281.503174 
	C215.072037,281.503174 215.105438,281.970856 214.993988,282.649384 
	C215.031677,283.104706 215.069382,283.560028 215.010880,284.944305 
	C216.421890,298.913696 216.864182,313.070190 219.516479,326.799805 
	C222.166351,340.516937 225.091629,353.981903 222.569824,368.640167 
	C219.095871,378.171844 220.204971,387.746704 221.424881,397.576599 
	C223.512131,414.395264 231.291626,430.411835 228.264572,448.648590 
	C226.566681,451.890198 224.853210,455.123779 223.177719,458.376953 
	C222.387619,459.911041 221.670349,461.482635 220.472214,463.638763 
	C219.684525,470.165955 220.812408,471.491180 229.031494,473.667786 
	C229.351959,473.772614 229.672424,473.877441 230.362671,474.068298 
	C230.362671,474.068298 230.742157,474.056610 230.924042,474.639282 
	C231.970749,474.435699 233.017441,474.232117 233.999634,474.011566 
z"/>
<path fill="#BBBBBB" opacity="1.000000" stroke="none" 
	d="
M178.932175,143.905853 
	C196.666336,136.752258 214.980988,131.723511 234.711182,128.928848 
	C236.910690,129.380554 238.464218,129.518906 239.650269,130.251862 
	C246.650635,134.577896 254.185165,136.544556 262.169403,134.310349 
	C267.581482,132.795914 272.693207,130.208130 277.939240,128.100388 
	C287.615143,130.082840 297.353088,131.811020 306.941864,134.150589 
	C312.054199,135.397949 316.887451,137.762863 321.886414,139.509674 
	C325.765869,140.865295 329.706909,142.044693 333.580017,143.899551 
	C330.318176,146.220062 325.301300,142.863968 322.720520,149.285172 
	C325.582703,150.540955 328.415070,151.716949 331.181274,153.032150 
	C332.201935,153.517426 333.066620,154.330780 333.693420,155.022003 
	C332.910645,155.401749 332.436859,155.753983 331.722412,156.093857 
	C331.481689,156.081482 331.001648,156.037979 330.801575,155.750885 
	C328.734314,155.307938 326.867157,155.152069 324.667480,154.996185 
	C323.891541,154.995972 323.448181,154.995789 322.962280,154.675079 
	C322.279419,153.903656 321.639099,153.452744 320.779541,152.893524 
	C320.286835,152.585693 320.099243,152.324478 319.963074,151.642731 
	C317.078613,144.998688 315.549316,144.607559 310.697083,149.148285 
	C306.462555,151.641495 302.230530,153.615158 298.712128,156.468719 
	C296.517487,158.248703 291.561676,159.039627 293.987000,163.990631 
	C293.989838,164.000412 293.970093,163.985199 293.591064,163.988342 
	C290.791748,165.510513 287.898499,166.596420 286.037964,168.628052 
	C279.922028,175.306580 272.997284,177.866928 264.187225,174.701614 
	C263.020569,174.282455 260.916138,174.943710 260.015869,175.860535 
	C259.434235,176.452850 259.773376,178.864349 260.534851,179.696289 
	C263.284515,182.700317 266.307587,185.472641 269.382660,188.154465 
	C271.915100,190.363052 274.645203,192.277222 273.975403,196.298843 
	C273.154480,201.227997 263.344574,209.420837 258.362427,210.101334 
	C251.115005,211.091248 247.557922,206.096069 243.421982,201.895218 
	C238.302765,196.695679 238.748947,192.681610 244.436630,188.249161 
	C247.518524,185.847412 250.439148,183.161758 253.027115,180.244492 
	C253.947525,179.206970 253.670242,177.106918 253.939697,175.491913 
	C252.303955,175.286316 250.495377,174.523300 249.061234,174.967926 
	C241.289078,177.377625 234.817795,175.705917 229.200180,169.798218 
	C227.095352,167.584686 224.418884,165.914734 221.709747,163.856812 
	C220.288254,163.141541 219.160095,162.566406 217.916931,161.735214 
	C217.537979,160.985901 217.274002,160.492645 217.256393,159.803497 
	C216.639526,155.548737 213.420593,154.639572 209.742889,153.890869 
	C208.990814,153.521332 208.497665,153.258469 207.950592,152.651688 
	C206.933151,151.869812 205.969620,151.431854 204.953735,150.650467 
	C202.566574,148.252655 199.596710,144.035355 197.033310,147.078949 
	C193.653641,151.091660 190.415802,154.171112 185.260544,155.088028 
	C185.123337,155.112442 185.082825,155.680542 184.748688,156.272629 
	C183.003769,156.693008 181.507370,156.835861 180.008667,156.646423 
	C180.003830,155.870590 180.001297,155.427078 180.074585,154.613129 
	C182.676941,153.354858 185.380997,152.775040 187.661697,151.460617 
	C188.974518,150.704010 189.602203,148.758621 190.538300,147.348358 
	C189.023605,146.566422 187.584366,145.509171 185.976166,145.068527 
	C183.693375,144.443039 181.286194,144.271423 178.932175,143.905853 
M224.656952,134.999207 
	C223.161209,134.954376 221.516113,135.301880 220.194794,134.798874 
	C213.349670,132.192947 209.810959,136.535141 205.874023,140.927444 
	C206.753876,141.992706 207.286804,142.837875 208.004013,143.475906 
	C216.916397,151.404388 225.765808,159.407654 234.827042,167.163116 
	C239.142990,170.857117 242.836868,170.538727 247.721375,166.846954 
	C252.284561,163.398010 260.998535,163.118271 265.495026,166.276321 
	C272.488251,171.187912 275.434692,170.771988 281.775543,164.794937 
	C288.285858,158.658112 295.057648,152.798004 301.736359,146.840759 
	C303.874420,144.933640 306.080444,143.102768 308.395264,141.117020 
	C304.702484,137.222580 301.936462,133.574402 296.675171,134.054535 
	C292.728119,134.414719 288.757416,134.556198 284.824951,135.026932 
	C276.835052,135.983353 268.866486,137.117096 260.882385,138.124176 
	C259.628784,138.282303 258.328796,138.271500 257.068817,138.148422 
	C246.582214,137.124023 236.099976,136.054977 224.656952,134.999207 
z"/>
<path fill="#989898" opacity="1.000000" stroke="none" 
	d="
M298.746033,281.106659 
	C299.333832,298.905212 297.990509,316.610291 293.087189,333.695740 
	C289.879089,344.874390 290.135010,355.853149 290.629089,367.533569 
	C289.231018,368.034302 288.064880,367.742737 287.278381,368.162445 
	C282.021606,370.968170 276.859131,373.950012 271.631561,376.811707 
	C270.668274,377.339081 269.547760,377.579193 268.499817,377.951904 
	C270.760498,367.804352 265.064240,358.922058 263.909973,349.298401 
	C262.293854,335.824219 260.176208,322.410034 258.246582,308.973999 
	C258.114166,308.051971 257.761017,307.161621 257.079559,304.699615 
	C256.188538,307.719391 255.722687,309.324554 255.241455,310.925079 
	C251.544785,323.219757 251.141006,335.962463 249.963989,348.613953 
	C249.583618,352.702423 248.188293,356.686646 247.466415,360.755646 
	C246.549942,365.921478 245.846497,371.125061 244.604034,376.608429 
	C239.459442,374.455811 234.840942,371.834259 230.028641,369.637177 
	C227.874664,368.653748 225.331970,368.521729 222.965683,368.003357 
	C225.091629,353.981903 222.166351,340.516937 219.516479,326.799805 
	C216.864182,313.070190 216.421890,298.913696 215.435303,284.566132 
	C216.239136,285.200714 216.816223,286.184967 216.967270,287.230682 
	C218.382538,297.029510 219.106369,306.975464 221.234833,316.612793 
	C224.341064,330.677460 231.643234,343.996277 228.042007,359.140442 
	C227.866028,359.880432 228.098862,360.832245 228.425140,361.557800 
	C230.081604,365.241028 233.330704,365.930206 235.897217,362.969788 
	C243.538574,354.155701 248.241791,343.583649 248.656296,332.249329 
	C249.038559,321.797546 251.121674,311.894257 253.657394,301.990051 
	C254.796112,297.542450 254.806488,294.683624 249.789108,293.242401 
	C248.678543,292.923370 247.273544,291.201965 247.278610,290.132324 
	C247.283371,289.130219 248.896851,287.381958 249.941589,287.270874 
	C254.140717,286.824188 258.418335,286.581390 262.614014,286.919830 
	C264.127136,287.041870 265.491394,289.009888 266.923584,290.135529 
	C265.727081,291.350311 264.742523,293.045410 263.292328,293.685272 
	C259.666809,295.285004 259.168732,297.526825 260.096771,301.195312 
	C262.646393,311.273895 265.419769,321.225800 265.226746,331.928436 
	C265.057770,341.297394 268.414551,350.178131 274.318237,357.707489 
	C276.597015,360.613831 278.345673,366.060699 283.303619,363.448120 
	C287.652954,361.156281 285.648926,356.169922 285.633362,352.090668 
	C285.613556,346.900116 285.454834,341.462311 286.857910,336.561096 
	C290.867218,322.555695 295.700378,308.818726 296.129791,294.000275 
	C296.254974,289.680756 297.833618,285.403351 298.746033,281.106659 
z"/>
<path fill="#A6A6A6" opacity="1.000000" stroke="none" 
	d="
M296.111969,267.565399 
	C296.439697,267.600708 296.625397,267.781738 296.252197,268.610382 
	C295.557831,270.544128 295.152618,271.964691 295.024017,273.409821 
	C294.321991,281.299377 293.811127,289.207642 293.001648,297.085541 
	C291.806000,308.722260 289.256042,320.128021 282.431244,329.781189 
	C277.313324,337.020111 277.189636,343.645905 281.419037,351.022095 
	C282.828339,353.479889 283.892334,356.899689 280.477142,358.209259 
	C279.444366,358.605286 276.782928,355.099243 275.073303,353.195740 
	C274.483734,352.539368 274.336487,351.329102 274.297455,350.359344 
	C273.934845,341.349701 269.115753,333.223755 270.473450,323.563904 
	C271.298950,317.690857 267.903412,311.142761 266.055786,305.002655 
	C264.668884,300.393677 264.325043,296.538055 268.453888,292.849945 
	C272.076141,289.614319 271.253326,286.846283 266.659546,285.068878 
	C260.237457,282.584015 253.704330,282.595490 247.290192,285.084595 
	C242.718872,286.858521 241.929260,289.638336 245.582611,292.887878 
	C249.743164,296.588562 249.317886,300.472717 247.926346,305.052673 
	C246.351578,310.235718 244.834961,315.489838 243.987747,320.823395 
	C243.330200,324.962860 244.215271,329.346985 243.560959,333.487457 
	C242.634827,339.347961 241.000565,345.104279 239.517227,350.866089 
	C238.636856,354.285767 237.827209,359.604370 233.477585,358.152466 
	C229.096649,356.690063 231.975983,352.132721 233.459061,349.172363 
	C236.643997,342.814972 236.608170,337.177948 232.249390,331.059753 
	C228.830063,326.260254 225.635330,320.715240 224.411133,315.053741 
	C221.449966,301.359467 217.638962,287.673096 218.891708,273.353088 
	C219.012573,271.971558 217.657211,270.460938 216.787781,269.014069 
	C216.588425,269.017914 216.189850,269.030731 216.189850,269.030731 
	C216.780167,265.283936 217.370483,261.537109 218.352142,257.394592 
	C219.161377,256.999084 219.579239,256.999268 220.270401,257.230621 
	C220.697632,258.642242 220.851562,259.822693 221.004364,261.431274 
	C221.002960,263.572540 221.002701,265.285645 221.000351,267.465668 
	C221.332611,273.691132 220.922195,279.617737 222.174789,285.169128 
	C224.083847,293.629852 226.722610,301.995911 229.887131,310.074860 
	C231.545380,314.308319 234.445892,314.071411 237.290970,310.492340 
	C241.561584,305.119965 244.474518,299.857117 241.243744,292.431366 
	C238.624771,286.411774 240.570724,284.228210 247.031494,282.929840 
	C248.747498,282.584991 250.347824,281.664490 252.321411,281.031555 
	C255.760635,281.039368 258.879700,281.023865 262.244629,281.285065 
	C263.757843,281.912872 265.008179,282.352844 266.295441,282.600647 
	C274.343536,284.149963 274.886505,286.545959 272.164062,294.184906 
	C270.685669,298.333099 271.098358,301.811371 273.148376,304.999817 
	C275.072052,307.991760 277.983459,310.348633 280.460236,312.984955 
	C282.646515,310.133362 285.643768,307.591949 286.874481,304.374817 
	C291.458405,292.392273 293.742218,279.913116 292.998108,266.570618 
	C292.997162,264.429352 292.995667,262.716248 292.996857,260.636658 
	C293.333862,259.179962 293.668182,258.089691 294.315979,256.999390 
	C295.047150,256.996368 295.464813,256.993408 295.882507,256.990417 
	C295.928009,257.435730 295.973511,257.881073 295.725098,258.921570 
	C295.658112,262.199615 295.885040,264.882507 296.111969,267.565399 
z"/>
<path fill="#A0A0A0" opacity="1.000000" stroke="none" 
	d="
M216.987122,269.010223 
	C217.657211,270.460938 219.012573,271.971558 218.891708,273.353088 
	C217.638962,287.673096 221.449966,301.359467 224.411133,315.053741 
	C225.635330,320.715240 228.830063,326.260254 232.249390,331.059753 
	C236.608170,337.177948 236.643997,342.814972 233.459061,349.172363 
	C231.975983,352.132721 229.096649,356.690063 233.477585,358.152466 
	C237.827209,359.604370 238.636856,354.285767 239.517227,350.866089 
	C241.000565,345.104279 242.634827,339.347961 243.560959,333.487457 
	C244.215271,329.346985 243.330200,324.962860 243.987747,320.823395 
	C244.834961,315.489838 246.351578,310.235718 247.926346,305.052673 
	C249.317886,300.472717 249.743164,296.588562 245.582611,292.887878 
	C241.929260,289.638336 242.718872,286.858521 247.290192,285.084595 
	C253.704330,282.595490 260.237457,282.584015 266.659546,285.068878 
	C271.253326,286.846283 272.076141,289.614319 268.453888,292.849945 
	C264.325043,296.538055 264.668884,300.393677 266.055786,305.002655 
	C267.903412,311.142761 271.298950,317.690857 270.473450,323.563904 
	C269.115753,333.223755 273.934845,341.349701 274.297455,350.359344 
	C274.336487,351.329102 274.483734,352.539368 275.073303,353.195740 
	C276.782928,355.099243 279.444366,358.605286 280.477142,358.209259 
	C283.892334,356.899689 282.828339,353.479889 281.419037,351.022095 
	C277.189636,343.645905 277.313324,337.020111 282.431244,329.781189 
	C289.256042,320.128021 291.806000,308.722260 293.001648,297.085541 
	C293.811127,289.207642 294.321991,281.299377 295.024017,273.409821 
	C295.152618,271.964691 295.557831,270.544128 296.224670,268.815948 
	C296.613953,268.519653 296.836975,268.650879 296.990356,268.992676 
	C297.309509,269.629639 297.550354,269.838104 297.866241,269.959808 
	C297.909729,270.731781 297.953217,271.503723 297.715332,272.863464 
	C297.728699,274.609375 298.023407,275.767517 298.318115,276.925690 
	C298.465576,278.035034 298.613037,279.144409 298.753235,280.680206 
	C297.833618,285.403351 296.254974,289.680756 296.129791,294.000275 
	C295.700378,308.818726 290.867218,322.555695 286.857910,336.561096 
	C285.454834,341.462311 285.613556,346.900116 285.633362,352.090668 
	C285.648926,356.169922 287.652954,361.156281 283.303619,363.448120 
	C278.345673,366.060699 276.597015,360.613831 274.318237,357.707489 
	C268.414551,350.178131 265.057770,341.297394 265.226746,331.928436 
	C265.419769,321.225800 262.646393,311.273895 260.096771,301.195312 
	C259.168732,297.526825 259.666809,295.285004 263.292328,293.685272 
	C264.742523,293.045410 265.727081,291.350311 266.923584,290.135529 
	C265.491394,289.009888 264.127136,287.041870 262.614014,286.919830 
	C258.418335,286.581390 254.140717,286.824188 249.941589,287.270874 
	C248.896851,287.381958 247.283371,289.130219 247.278610,290.132324 
	C247.273544,291.201965 248.678543,292.923370 249.789108,293.242401 
	C254.806488,294.683624 254.796112,297.542450 253.657394,301.990051 
	C251.121674,311.894257 249.038559,321.797546 248.656296,332.249329 
	C248.241791,343.583649 243.538574,354.155701 235.897217,362.969788 
	C233.330704,365.930206 230.081604,365.241028 228.425140,361.557800 
	C228.098862,360.832245 227.866028,359.880432 228.042007,359.140442 
	C231.643234,343.996277 224.341064,330.677460 221.234833,316.612793 
	C219.106369,306.975464 218.382538,297.029510 216.967270,287.230682 
	C216.816223,286.184967 216.239136,285.200714 215.483398,284.101654 
	C215.069382,283.560028 215.031677,283.104706 215.196442,282.243500 
	C215.398911,281.837616 215.556992,281.436707 215.556992,281.436707 
	C215.556992,281.436707 215.269592,281.078003 215.269592,281.078003 
	C215.304611,279.632294 215.339645,278.186584 215.775787,276.252747 
	C216.148056,274.857483 216.119232,273.950348 216.090393,273.043243 
	C216.064102,272.270660 216.037811,271.498077 216.267075,270.237305 
	C216.757507,269.553162 216.912338,269.306854 216.987122,269.010223 
z"/>
<path fill="#989898" opacity="1.000000" stroke="none" 
	d="
M331.001648,156.037979 
	C331.001648,156.037979 331.481689,156.081482 331.778900,156.462341 
	C335.650330,157.890869 339.165283,159.287552 342.812256,159.906693 
	C348.682526,160.903244 354.652710,161.295715 360.554993,162.126099 
	C363.395538,162.525711 366.177429,163.342331 369.391541,163.981293 
	C371.531464,163.661438 373.265717,163.330414 375.416351,163.000702 
	C377.220459,162.998932 378.608246,162.995850 380.392059,162.997894 
	C382.197937,162.340393 383.607727,161.677750 385.477051,161.014420 
	C396.990356,160.287979 408.044159,159.562241 419.316711,158.846802 
	C419.535400,158.857101 419.971405,158.897583 420.323547,158.939972 
	C422.133575,159.631393 423.591431,160.280441 425.047729,160.956818 
	C425.046143,160.984146 425.087036,160.947723 425.065918,161.278870 
	C425.031189,162.051620 425.017578,162.493210 425.003967,162.934814 
	C418.124023,163.139557 411.213318,163.004425 404.370789,163.623001 
	C391.860962,164.753922 379.417938,167.047943 366.897308,167.510986 
	C355.357941,167.937775 343.757660,166.450470 332.175262,166.104568 
	C327.226654,165.956772 322.180634,166.117157 317.310486,166.927917 
	C308.134705,168.455490 300.718384,172.664276 298.052429,182.429306 
	C295.217743,192.812378 292.502014,203.227951 289.124207,213.591492 
	C288.540894,211.300156 288.279633,208.997986 288.650726,206.802704 
	C289.605377,201.155457 291.076630,195.589264 291.884186,189.925491 
	C292.471619,185.805374 292.871368,181.235352 286.079254,181.625198 
	C286.440430,179.824432 286.723114,178.414917 287.313232,176.852142 
	C291.256073,173.152115 294.208344,169.207047 295.233276,163.742935 
	C297.631653,162.313782 299.814209,161.154129 302.362488,159.994797 
	C304.158722,158.668747 305.589203,157.342392 307.417358,156.013428 
	C309.875732,156.336746 311.936401,156.662659 313.999146,156.994827 
	C314.001221,157.001099 314.012207,156.999405 314.046753,157.341949 
	C315.383423,158.119217 316.685608,158.553955 318.389771,158.995148 
	C319.864349,158.995102 320.936951,158.988617 322.438385,158.984589 
	C325.090637,158.333344 328.808868,160.849777 329.400269,156.054352 
	C330.147186,156.047012 330.574432,156.042496 331.001648,156.037979 
z"/>
<path fill="#989898" opacity="1.000000" stroke="none" 
	d="
M224.157272,215.979782 
	C220.883301,203.340256 218.433563,190.404114 214.031342,178.170593 
	C211.318695,170.632324 203.555298,167.367493 195.531662,166.833466 
	C186.935822,166.261353 178.295303,165.968048 169.684738,166.125351 
	C161.758057,166.270187 153.816452,167.888123 145.933426,167.569717 
	C135.387955,167.143829 124.905144,165.337631 114.371719,164.386856 
	C106.204887,163.649719 98.001701,163.315353 89.392090,162.528534 
	C88.922356,161.802979 88.875198,161.350845 88.861328,160.659058 
	C88.894623,160.419403 88.970863,159.941544 89.294785,159.920151 
	C90.098808,159.280045 90.578918,158.661346 91.426758,158.039368 
	C92.529854,158.025177 93.265213,158.014282 94.291672,158.300629 
	C106.869225,160.060867 119.141411,161.663040 131.448364,162.926468 
	C137.354874,163.532837 143.576935,164.697571 149.220947,163.521408 
	C163.898087,160.462799 178.596313,158.774734 193.565598,158.923950 
	C195.757645,158.945801 198.212463,158.280594 200.100998,157.174210 
	C203.077209,155.430618 205.181854,155.876862 207.696014,158.028366 
	C209.041290,159.179596 211.207184,159.371887 213.248199,160.001984 
	C213.493652,160.007034 213.984573,160.016769 214.020676,160.355621 
	C215.036331,161.464447 216.015884,162.234421 217.167389,163.260376 
	C218.221405,164.348038 219.103470,165.179718 220.013016,166.332275 
	C220.694473,167.434753 221.348465,168.216370 222.001221,168.998993 
	C222.000000,169.000000 222.002625,168.997559 222.035736,169.351593 
	C223.710571,172.138779 225.352295,174.571960 227.000519,177.384277 
	C227.191986,179.004745 227.376953,180.246094 227.628052,181.931198 
	C222.710037,181.296036 221.437439,183.813416 222.002274,187.841965 
	C222.865021,193.995071 223.938324,200.127197 224.534134,206.305664 
	C224.841080,209.488647 224.309784,212.752487 224.157272,215.979782 
z"/>
<path fill="#C0C0C0" opacity="1.000000" stroke="none" 
	d="
M94.000580,158.003387 
	C93.265213,158.014282 92.529854,158.025177 91.100677,158.058273 
	C89.928207,158.700821 89.449539,159.321182 88.970871,159.941544 
	C88.970863,159.941544 88.894623,160.419403 88.452087,160.687225 
	C86.700806,161.125671 85.396385,161.347855 84.082565,161.458191 
	C77.439384,162.016129 70.793762,162.544968 64.148994,163.084015 
	C64.137711,162.890411 64.126419,162.696793 64.537994,162.224182 
	C68.198212,161.258636 71.435555,160.572052 74.672897,159.885468 
	C74.539352,159.343994 74.405807,158.802521 74.272263,158.261047 
	C68.054504,158.720535 61.841560,159.396347 55.616673,159.534821 
	C53.065025,159.591553 50.487576,158.487991 47.921867,157.912262 
	C57.296406,156.303635 66.639175,154.471146 76.052391,153.134918 
	C93.378754,150.675415 110.706184,148.104584 128.111465,146.362091 
	C139.459564,145.225983 150.947632,145.515823 162.369202,145.069443 
	C165.993973,144.927811 169.606491,144.472092 173.742493,144.312408 
	C174.260361,144.464706 174.696838,144.476608 174.696838,144.476608 
	C174.696838,144.476608 174.970703,144.088318 174.970703,144.088318 
	C176.027618,144.043594 177.084518,143.998856 178.536804,143.929993 
	C181.286194,144.271423 183.693375,144.443039 185.976166,145.068527 
	C187.584366,145.509171 189.023605,146.566422 190.538300,147.348358 
	C189.602203,148.758621 188.974518,150.704010 187.661697,151.460617 
	C185.380997,152.775040 182.676941,153.354858 179.699738,154.617584 
	C178.499252,154.992676 177.749435,154.992874 176.704926,154.697357 
	C165.418564,153.600800 154.437500,152.507111 143.431259,152.107758 
	C136.700089,151.863525 129.903427,152.431931 123.189590,153.141006 
	C120.058807,153.471664 117.054794,155.002609 113.555832,155.990570 
	C111.074677,155.999298 109.031013,156.006943 106.740486,156.012650 
	C106.493622,156.010696 106.000000,156.000000 105.962730,155.700653 
	C105.517166,155.081635 105.108879,154.761978 104.700592,154.442322 
	C104.466965,154.961136 104.233330,155.479965 103.570190,156.001785 
	C100.093987,156.670990 97.047279,157.337189 94.000580,158.003387 
z"/>
<path fill="#C0C0C0" opacity="1.000000" stroke="none" 
	d="
M419.971405,158.897583 
	C419.971405,158.897583 419.535400,158.857101 419.284393,158.484009 
	C417.155762,152.599548 413.115021,156.271484 409.966431,155.687531 
	C409.517792,155.073608 409.109497,154.756912 408.701202,154.440216 
	C408.465363,154.955475 408.229523,155.470718 407.550018,155.988708 
	C404.738464,155.992477 402.370514,155.993484 399.919128,155.609955 
	C399.500336,154.878632 399.192841,154.262711 398.825653,154.224792 
	C391.259491,153.443588 383.681396,152.088577 376.116211,152.150131 
	C364.869049,152.241592 353.627380,153.305298 342.393158,154.094208 
	C341.555054,154.153061 340.795105,155.324829 339.614624,155.977661 
	C337.487732,155.648895 335.745087,155.321701 334.002441,154.994507 
	C333.066620,154.330780 332.201935,153.517426 331.181274,153.032150 
	C328.415070,151.716949 325.582703,150.540955 322.720520,149.285172 
	C325.301300,142.863968 330.318176,146.220062 333.814026,144.188309 
	C335.462158,143.912552 336.835632,143.945175 338.691620,144.180176 
	C339.174103,144.382568 339.586975,144.520752 339.586975,144.520752 
	C339.586975,144.520752 339.928528,144.203934 339.928528,144.203934 
	C347.537018,144.457642 355.173370,144.386154 362.748077,145.034439 
	C377.394592,146.287964 392.021881,147.811020 406.628204,149.476028 
	C421.729187,151.197418 436.800446,153.184204 451.874664,155.132507 
	C456.456787,155.724731 461.005676,156.574326 465.512878,157.841568 
	C463.370148,158.779175 461.271179,159.578125 459.200836,159.509827 
	C452.664612,159.294128 446.139069,158.753540 439.609406,158.338654 
	C439.523529,158.925034 439.437622,159.511414 439.351746,160.097794 
	C442.849976,160.706100 446.348206,161.314407 449.846436,161.922699 
	C449.859344,162.116562 449.872223,162.310410 449.511169,162.946564 
	C446.741150,163.423737 444.312653,163.725876 441.955414,163.440201 
	C436.314758,162.756577 430.707672,161.796310 425.087036,160.947723 
	C425.087036,160.947723 425.046143,160.984146 425.032135,160.603394 
	C424.328857,155.998993 422.275726,156.969986 419.971405,158.897583 
z"/>
<path fill="#A0A0A0" opacity="1.000000" stroke="none" 
	d="
M222.767761,368.321777 
	C225.331970,368.521729 227.874664,368.653748 230.028641,369.637177 
	C234.840942,371.834259 239.459442,374.455811 244.496033,376.942566 
	C244.892166,377.402313 244.949158,377.823944 245.088837,378.788361 
	C245.318405,379.624054 245.543884,379.831543 245.847946,379.953644 
	C245.896408,384.031464 245.944855,388.109314 245.727509,392.739990 
	C245.223633,393.529144 245.080872,393.813354 245.033432,394.145477 
	C245.022430,395.185974 245.011444,396.226471 244.732910,397.779297 
	C244.224609,398.530701 244.081467,398.818359 244.035950,399.154602 
	C243.702042,401.191986 243.368134,403.229370 242.711731,405.900391 
	C242.272827,407.732269 242.156433,408.930542 242.040039,410.128784 
	C242.024017,410.555267 242.007996,410.981781 241.739166,411.867767 
	C241.632645,412.873627 241.778931,413.419952 241.925201,413.966309 
	C241.948425,414.428375 241.971634,414.890442 241.730957,415.819458 
	C241.226715,416.520630 241.081268,416.803619 241.030731,417.135406 
	C241.017960,417.863098 241.005188,418.590790 240.739975,419.822510 
	C240.635056,420.873901 240.782578,421.421204 240.930084,421.968536 
	C240.952835,422.429840 240.975571,422.891113 240.734314,423.817139 
	C240.229050,424.513519 240.081528,424.794434 240.027756,425.124634 
	C240.009521,425.840881 239.991287,426.557129 239.539230,427.531250 
	C238.556168,418.564362 236.566620,409.130585 237.866287,400.174164 
	C239.143784,391.370483 240.414276,383.536224 233.250839,377.027405 
	C231.526276,375.460419 228.726059,375.077240 226.420502,374.149689 
	C225.619659,376.319000 224.065994,378.533508 224.192902,380.647095 
	C224.387283,383.884033 225.811066,387.034241 226.587021,390.251678 
	C228.742371,399.188751 232.045212,407.791870 230.287720,417.504974 
	C229.400742,422.406982 231.334961,427.819458 231.995544,433.417633 
	C231.996460,435.222839 231.995361,436.611511 231.706528,438.276489 
	C231.276276,441.031006 231.133759,443.509216 230.874847,446.245544 
	C230.022507,446.965942 229.286545,447.428192 228.550598,447.890472 
	C231.291626,430.411835 223.512131,414.395264 221.424881,397.576599 
	C220.204971,387.746704 219.095871,378.171844 222.767761,368.321777 
z"/>
<path fill="#A0A0A0" opacity="1.000000" stroke="none" 
	d="
M268.327515,378.358795 
	C269.547760,377.579193 270.668274,377.339081 271.631561,376.811707 
	C276.859131,373.950012 282.021606,370.968170 287.278381,368.162445 
	C288.064880,367.742737 289.231018,368.034302 290.627899,367.995667 
	C295.057068,377.387634 294.494202,387.077728 292.600281,396.750427 
	C290.406311,407.955475 287.520264,419.036835 285.675995,430.293365 
	C284.782623,435.745850 285.582092,441.475739 285.224854,447.392029 
	C282.343872,442.765472 281.373566,437.754669 282.669952,432.146149 
	C283.653076,427.892731 283.588562,423.397186 283.994232,418.541779 
	C283.504242,407.373535 285.260162,397.014923 288.500580,386.836243 
	C289.342163,384.192719 289.850189,381.346771 289.927917,378.577393 
	C290.066925,373.623535 287.220306,371.493896 283.596863,374.580719 
	C279.299713,378.241486 276.514191,383.683197 273.127930,388.392151 
	C272.897614,388.712433 272.966583,389.432983 273.158875,389.844818 
	C277.389618,398.906311 276.563171,408.470551 276.009491,418.452789 
	C274.995209,421.508179 278.406708,425.489960 273.529297,426.905975 
	C271.465302,413.487122 269.299835,400.082428 267.427002,386.636932 
	C267.073151,384.096283 267.882568,381.393616 268.327515,378.358795 
z"/>
<path fill="#A6A6A6" opacity="1.000000" stroke="none" 
	d="
M231.993530,433.001099 
	C231.334961,427.819458 229.400742,422.406982 230.287720,417.504974 
	C232.045212,407.791870 228.742371,399.188751 226.587021,390.251678 
	C225.811066,387.034241 224.387283,383.884033 224.192902,380.647095 
	C224.065994,378.533508 225.619659,376.319000 226.420502,374.149689 
	C228.726059,375.077240 231.526276,375.460419 233.250839,377.027405 
	C240.414276,383.536224 239.143784,391.370483 237.866287,400.174164 
	C236.566620,409.130585 238.556168,418.564362 239.489273,427.885986 
	C240.618011,430.931946 241.198746,433.934601 242.139969,436.819611 
	C244.535919,444.163696 242.866806,451.383850 241.131866,458.623596 
	C240.026550,453.405640 239.528870,448.199341 239.310715,442.726501 
	C240.203262,437.005188 239.285660,432.086273 234.895355,427.731873 
	C233.691040,429.918701 232.842285,431.459900 231.993530,433.001099 
z"/>
<path fill="#AFAFAF" opacity="1.000000" stroke="none" 
	d="
M277.690491,127.860733 
	C272.693207,130.208130 267.581482,132.795914 262.169403,134.310349 
	C254.185165,136.544556 246.650635,134.577896 239.650269,130.251862 
	C238.464218,129.518906 236.910690,129.380554 235.107971,128.944717 
	C239.608139,126.802299 243.231064,123.801498 242.807709,117.334396 
	C244.706284,117.328148 246.332352,117.362587 247.469955,118.125458 
	C253.956696,122.475601 260.239227,122.597519 266.698425,118.015106 
	C267.914856,117.152145 269.808167,117.243317 271.389130,116.894196 
	C271.941315,121.296646 271.588806,126.209549 277.690491,127.860733 
z"/>
<path fill="#AFAFAF" opacity="1.000000" stroke="none" 
	d="
M283.990234,419.009369 
	C283.588562,423.397186 283.653076,427.892731 282.669952,432.146149 
	C281.373566,437.754669 282.343872,442.765472 285.142212,447.784943 
	C287.423645,451.549927 289.640076,455.129456 291.288513,458.953796 
	C292.444458,461.635620 292.825653,464.651367 293.148010,467.446838 
	C292.112579,466.038910 291.769928,464.428589 290.803253,463.411072 
	C285.702148,458.041595 281.706879,452.126373 279.981201,444.772552 
	C279.659119,443.399994 278.119995,442.313049 276.632141,440.457947 
	C275.310242,450.031952 274.023743,458.338470 273.116150,466.686157 
	C272.908234,468.598450 274.005066,470.652557 274.501404,472.641418 
	C275.901398,471.737732 277.301392,470.834045 279.094238,469.676819 
	C279.403259,471.254639 279.679260,472.663879 279.955261,474.073090 
	C278.856506,474.328644 277.763428,474.612274 276.657928,474.834229 
	C273.954926,475.376831 272.067352,474.800537 271.953827,471.541901 
	C271.715515,464.700958 272.243378,457.696869 270.923828,451.064728 
	C269.288788,442.846680 273.372955,435.598511 273.388489,427.339661 
	C278.406708,425.489960 274.995209,421.508179 276.348145,418.400787 
	C277.810425,416.701630 278.933167,415.497803 279.929626,414.429352 
	C281.418274,416.108398 282.704254,417.558868 283.990234,419.009369 
M274.490387,430.592957 
	C274.490387,430.592957 274.423462,430.475586 274.490387,430.592957 
z"/>
<path fill="#A6A6A6" opacity="1.000000" stroke="none" 
	d="
M295.017487,164.012436 
	C294.208344,169.207047 291.256073,173.152115 286.962616,176.885132 
	C285.727234,177.371613 285.064728,177.573288 284.585876,177.987350 
	C279.793243,182.131302 280.071991,182.893951 285.770294,185.297211 
	C287.260834,185.925827 288.902313,188.516876 288.822479,190.124664 
	C288.555603,195.502914 287.660645,200.863907 286.780762,206.194260 
	C285.735687,212.525284 284.686890,218.778061 289.883850,223.986328 
	C289.920288,226.038177 289.956726,228.090027 289.588135,230.644302 
	C285.728180,236.673615 286.321564,238.690033 291.783997,239.984863 
	C291.839294,240.156784 291.894623,240.328720 291.996338,241.053009 
	C292.333038,242.058975 292.623383,242.512543 292.913727,242.966125 
	C292.996918,243.318832 293.080109,243.671539 293.107788,244.681549 
	C292.705231,246.226639 292.358215,247.114410 291.736694,247.807007 
	C289.921387,245.713776 288.690735,243.377365 286.769012,242.017624 
	C283.679474,239.831573 283.020386,237.675430 284.362030,234.091629 
	C287.101837,226.772888 285.637054,222.169922 279.465485,217.754791 
	C275.860474,215.175751 275.666443,212.917770 278.163391,209.097214 
	C281.012238,204.738174 283.028046,199.730804 284.754303,194.778061 
	C285.928436,191.409348 285.185852,188.344772 280.706482,187.246613 
	C278.245453,186.643265 276.067352,184.885956 273.943329,183.746399 
	C275.326019,181.153107 276.165466,179.578690 277.336975,178.003143 
	C278.111816,177.999710 278.554565,177.997421 279.365479,177.993057 
	C282.489471,175.661026 285.245331,173.331070 288.278503,170.803864 
	C290.360565,168.399490 292.165344,166.192352 293.970093,163.985199 
	C293.970093,163.985199 293.989838,164.000412 294.245422,163.998993 
	C294.673157,164.002548 294.845337,164.007492 295.017487,164.012436 
z"/>
<path fill="#C0C0C0" opacity="1.000000" stroke="none" 
	d="
M239.031189,442.993073 
	C239.528870,448.199341 240.026550,453.405640 240.840118,458.886963 
	C241.111603,460.144714 241.067215,461.127472 241.011368,462.940796 
	C240.996796,465.083405 241.107498,466.407745 240.967270,467.704926 
	C240.661362,470.535004 241.680161,475.276489 236.113144,471.414612 
	C236.058975,471.377075 234.751846,473.145721 234.029663,474.071136 
	C234.029648,474.071136 233.999634,474.011566 233.617554,474.007507 
	C232.404358,474.021179 231.573257,474.038879 230.742157,474.056610 
	C230.742157,474.056610 230.362671,474.068298 230.160553,473.770630 
	C229.533600,473.410980 229.108734,473.349030 228.683884,473.287079 
	C220.812408,471.491180 219.684525,470.165955 221.052048,463.299805 
	C227.759888,458.042694 231.790771,451.868805 232.994583,443.751831 
	C233.001968,443.506042 233.010162,443.014374 233.312134,442.857910 
	C234.396896,441.550629 235.179672,440.399841 236.256638,438.816528 
	C237.334564,440.439148 238.182877,441.716095 239.031189,442.993073 
z"/>
<path fill="#C0C0C0" opacity="1.000000" stroke="none" 
	d="
M279.968933,474.051514 
	C279.679260,472.663879 279.403259,471.254639 279.094238,469.676819 
	C277.301392,470.834045 275.901398,471.737732 274.501404,472.641418 
	C274.005066,470.652557 272.908234,468.598450 273.116150,466.686157 
	C274.023743,458.338470 275.310242,450.031952 276.632141,440.457947 
	C278.119995,442.313049 279.659119,443.399994 279.981201,444.772552 
	C281.706879,452.126373 285.702148,458.041595 290.803253,463.411072 
	C291.769928,464.428589 292.112579,466.038910 292.877350,467.703491 
	C291.317841,469.580597 289.665894,471.179749 287.908691,472.653381 
	C287.255432,473.201202 286.355743,473.455261 285.261963,473.664551 
	C284.801300,473.224213 284.647125,472.962585 284.492920,472.700989 
	C284.330933,473.127899 284.168945,473.554779 284.006958,473.981689 
	C284.006958,473.981689 283.637299,474.068085 283.030334,474.039490 
	C281.594177,474.016785 280.764984,474.022675 279.935760,474.028564 
	C279.935760,474.028564 279.982605,474.029938 279.968933,474.051514 
z"/>
<path fill="#A0A0A0" opacity="1.000000" stroke="none" 
	d="
M273.956879,102.844231 
	C273.339996,104.338356 272.723114,105.832481 271.667511,107.699829 
	C268.814484,110.045433 266.400146,112.017830 263.990295,113.587105 
	C265.324097,109.118423 266.653473,105.052864 267.987640,100.658310 
	C267.999268,99.890648 268.006104,99.451988 268.362610,98.956619 
	C270.350006,96.457443 274.534698,94.437645 269.853943,90.733185 
	C269.120239,90.328758 268.559967,90.166573 267.874146,89.705269 
	C266.831512,87.930481 265.914398,86.454811 265.248505,84.982697 
	C265.667145,84.989899 265.834564,84.993538 266.247192,85.277153 
	C267.642090,85.113205 269.669128,84.847153 269.800964,84.196861 
	C270.747223,79.529770 271.308441,74.784607 271.991882,70.064232 
	C273.032104,71.843407 274.556213,73.504753 275.023438,75.423454 
	C276.531189,81.615166 277.649963,87.901588 278.488342,94.564407 
	C272.828827,95.586227 274.599182,99.844101 273.956879,102.844231 
z"/>
<path fill="#A0A0A0" opacity="1.000000" stroke="none" 
	d="
M242.099701,108.011612 
	C241.606461,106.426773 241.113205,104.841927 240.314972,102.647888 
	C239.536942,98.898720 240.609940,94.703712 235.173309,94.950821 
	C235.742004,93.026215 236.318283,91.103806 236.876556,89.176178 
	C237.214890,88.007942 237.945633,86.767395 237.777802,85.669777 
	C236.917984,80.046738 238.287598,75.030945 241.691040,70.658134 
	C242.727158,76.655281 241.570786,83.105591 247.773529,86.886154 
	C247.294388,87.731041 246.648361,88.870209 245.669983,90.006912 
	C244.894531,90.005623 244.451431,90.006790 243.685913,90.170380 
	C240.562927,94.337013 242.738525,96.837296 245.992035,99.342308 
	C246.003754,100.109947 246.010422,100.548607 246.048111,101.359375 
	C247.391266,105.816628 248.703384,109.901764 249.713501,113.848129 
	C246.974228,111.810097 244.536972,109.910858 242.099701,108.011612 
z"/>
<path fill="#BBBBBB" opacity="1.000000" stroke="none" 
	d="
M266.002014,84.997169 
	C265.834564,84.993538 265.667145,84.989899 265.041931,84.721100 
	C263.718445,84.292793 262.852692,84.129639 262.039978,83.585358 
	C262.697296,79.562164 264.289795,75.716240 263.593903,72.342339 
	C263.034302,69.628929 260.062164,66.313347 257.472565,65.525146 
	C255.884079,65.041649 251.410736,68.546211 251.035324,70.739571 
	C250.311432,74.968857 251.574097,79.538162 251.609955,83.975662 
	C249.622711,84.144226 248.038574,84.303627 246.151230,84.493530 
	C246.052261,77.283958 244.795471,70.292755 249.000610,63.998001 
	C254.604630,60.481667 260.145630,60.873184 265.860352,64.956642 
	C266.701294,71.478020 267.377716,77.304504 267.846405,83.147659 
	C267.891602,83.711220 266.647583,84.378197 266.002014,84.997169 
z"/>
<path fill="#A0A0A0" opacity="1.000000" stroke="none" 
	d="
M224.090973,216.427444 
	C224.309784,212.752487 224.841080,209.488647 224.534134,206.305664 
	C223.938324,200.127197 222.865021,193.995071 222.002274,187.841965 
	C221.437439,183.813416 222.710037,181.296036 227.628052,181.931198 
	C227.376953,180.246094 227.191986,179.004745 227.351181,177.417328 
	C228.276306,177.374634 228.942993,177.579041 229.424957,177.996643 
	C234.198776,182.132996 233.943085,182.807358 228.124359,185.299484 
	C226.705063,185.907364 225.115540,188.275238 225.170929,189.776093 
	C225.358780,194.867615 226.524033,199.918686 226.793350,205.012848 
	C227.067612,210.200409 226.772446,215.421921 226.635300,220.626144 
	C226.529129,224.654907 225.440735,228.874069 226.313492,232.656876 
	C227.373962,237.253296 226.269135,239.658051 222.051270,241.048492 
	C222.044388,241.042419 222.038116,241.028839 222.038116,241.028839 
	C222.700302,232.977600 223.362488,224.926346 224.090973,216.427444 
z"/>
<path fill="#989898" opacity="1.000000" stroke="none" 
	d="
M242.050674,108.456879 
	C244.536972,109.910858 246.974228,111.810097 249.749481,113.851837 
	C250.087479,113.994324 250.159409,114.004723 250.305725,114.328156 
	C254.505920,117.269226 258.627350,117.466911 263.069305,114.896164 
	C263.538849,114.526962 263.762329,114.258598 263.985840,113.990234 
	C266.400146,112.017830 268.814484,110.045433 271.564514,108.042381 
	C271.810730,110.686447 271.721191,113.361183 271.510406,116.465057 
	C269.808167,117.243317 267.914856,117.152145 266.698425,118.015106 
	C260.239227,122.597519 253.956696,122.475601 247.469955,118.125458 
	C246.332352,117.362587 244.706284,117.328148 242.958420,116.925064 
	C242.407898,114.229279 242.204773,111.565712 242.050674,108.456879 
z"/>
<path fill="#A0A0A0" opacity="1.000000" stroke="none" 
	d="
M289.931335,223.574753 
	C284.686890,218.778061 285.735687,212.525284 286.780762,206.194260 
	C287.660645,200.863907 288.555603,195.502914 288.822479,190.124664 
	C288.902313,188.516876 287.260834,185.925827 285.770294,185.297211 
	C280.071991,182.893951 279.793243,182.131302 284.585876,177.987350 
	C285.064728,177.573288 285.727234,177.371613 286.655151,177.038391 
	C286.723114,178.414917 286.440430,179.824432 286.079254,181.625198 
	C292.871368,181.235352 292.471619,185.805374 291.884186,189.925491 
	C291.076630,195.589264 289.605377,201.155457 288.650726,206.802704 
	C288.279633,208.997986 288.540894,211.300156 288.819550,213.817810 
	C289.409607,217.109055 289.694244,220.136108 289.931335,223.574753 
z"/>
<path fill="#AFAFAF" opacity="1.000000" stroke="none" 
	d="
M248.654816,64.019806 
	C244.795471,70.292755 246.052261,77.283958 246.151230,84.493530 
	C248.038574,84.303627 249.622711,84.144226 251.942123,83.983238 
	C253.120636,83.981155 253.563904,83.980667 254.008423,84.310051 
	C254.019760,85.078590 254.029816,85.517250 253.666290,85.974686 
	C252.528488,86.989548 251.764236,87.985626 250.802551,89.243286 
	C249.070831,89.673035 247.536575,89.841194 246.002319,90.009361 
	C246.648361,88.870209 247.294388,87.731041 247.773529,86.886154 
	C241.570786,83.105591 242.727158,76.655281 242.000320,70.497452 
	C244.108673,68.056526 246.208847,66.049065 248.654816,64.019806 
z"/>
<path fill="#AFAFAF" opacity="1.000000" stroke="none" 
	d="
M64.119186,163.448898 
	C70.793762,162.544968 77.439384,162.016129 84.082565,161.458191 
	C85.396385,161.347855 86.700806,161.125671 88.418800,160.926880 
	C88.875198,161.350845 88.922356,161.802979 88.982437,162.595062 
	C86.802177,163.902985 84.689621,165.347733 82.398262,165.735260 
	C78.198387,166.445557 73.879471,166.882263 69.637802,166.718323 
	C67.753731,166.645523 65.936790,164.835342 64.119186,163.448898 
z"/>
<path fill="#AFAFAF" opacity="1.000000" stroke="none" 
	d="
M425.065918,161.278870 
	C430.707672,161.796310 436.314758,162.756577 441.955414,163.440201 
	C444.312653,163.725876 446.741150,163.423737 449.494385,163.237488 
	C448.433502,164.348923 446.963745,166.742813 445.606415,166.680710 
	C439.395508,166.396484 433.212830,165.449448 427.030914,164.655823 
	C426.470337,164.583847 425.987213,163.908356 425.236023,163.223969 
	C425.017578,162.493210 425.031189,162.051620 425.065918,161.278870 
z"/>
<path fill="#A6A6A6" opacity="1.000000" stroke="none" 
	d="
M450.326050,161.892090 
	C446.348206,161.314407 442.849976,160.706100 439.351746,160.097794 
	C439.437622,159.511414 439.523529,158.925034 439.609406,158.338654 
	C446.139069,158.753540 452.664612,159.294128 459.200836,159.509827 
	C461.271179,159.578125 463.370148,158.779175 465.766937,158.143768 
	C466.321716,160.667923 465.054779,161.895401 462.296417,161.851486 
	C458.467163,161.790527 454.635986,161.852264 450.326050,161.892090 
z"/>
<path fill="#A6A6A6" opacity="1.000000" stroke="none" 
	d="
M47.920494,158.328461 
	C50.487576,158.487991 53.065025,159.591553 55.616673,159.534821 
	C61.841560,159.396347 68.054504,158.720535 74.272263,158.261047 
	C74.405807,158.802521 74.539352,159.343994 74.672897,159.885468 
	C71.435555,160.572052 68.198212,161.258636 64.557213,161.933899 
	C60.074684,161.893967 55.968018,162.126236 51.931904,161.696274 
	C50.505684,161.544327 49.251724,159.775360 47.920494,158.328461 
z"/>
<path fill="#AFAFAF" opacity="1.000000" stroke="none" 
	d="
M266.247192,85.277153 
	C266.647583,84.378197 267.891602,83.711220 267.846405,83.147659 
	C267.377716,77.304504 266.701294,71.478020 266.061218,65.244446 
	C267.947449,66.369591 269.855042,67.897202 271.877258,69.744522 
	C271.308441,74.784607 270.747223,79.529770 269.800964,84.196861 
	C269.669128,84.847153 267.642090,85.113205 266.247192,85.277153 
z"/>
<path fill="#AFAFAF" opacity="1.000000" stroke="none" 
	d="
M232.987183,443.997589 
	C231.790771,451.868805 227.759888,458.042694 221.275970,462.999023 
	C221.670349,461.482635 222.387619,459.911041 223.177719,458.376953 
	C224.853210,455.123779 226.566681,451.890198 228.407593,448.269531 
	C229.286545,447.428192 230.022507,446.965942 231.120300,446.095703 
	C231.983826,445.124329 232.485504,444.560944 232.987183,443.997589 
z"/>
<path fill="#AFAFAF" opacity="1.000000" stroke="none" 
	d="
M234.423920,474.029907 
	C234.751846,473.145721 236.058975,471.377075 236.113144,471.414612 
	C241.680161,475.276489 240.661362,470.535004 240.967270,467.704926 
	C241.107498,466.407745 240.996796,465.083405 241.015915,463.310974 
	C244.508347,466.126892 242.063721,469.897430 241.441483,473.290497 
	C241.328354,473.907379 237.130417,473.775116 234.423920,474.029907 
z"/>
<path fill="#B4B4B4" opacity="1.000000" stroke="none" 
	d="
M235.142578,95.335609 
	C240.609940,94.703712 239.536942,98.898720 240.026550,102.441467 
	C234.931061,102.870438 236.464020,98.296852 235.142578,95.335609 
z"/>
<path fill="#A0A0A0" opacity="1.000000" stroke="none" 
	d="
M219.997101,256.999420 
	C219.579239,256.999268 219.161377,256.999084 218.430511,256.994690 
	C219.244003,251.824387 220.370529,246.658340 221.767578,241.260559 
	C222.038116,241.028839 222.044388,241.042419 222.028992,241.431915 
	C222.005615,243.880692 221.997635,245.939957 221.990417,248.331345 
	C221.989853,249.106262 221.988510,249.549057 221.643463,250.047699 
	C220.870667,251.072739 220.441589,252.041946 220.010925,253.410004 
	C220.005264,254.872360 220.001190,255.935898 219.997101,256.999420 
z"/>
<path fill="#B4B4B4" opacity="1.000000" stroke="none" 
	d="
M274.327271,102.921349 
	C274.599182,99.844101 272.828827,95.586227 278.442352,94.963989 
	C277.450317,97.633278 276.073975,100.315872 274.327271,102.921349 
z"/>
<path fill="#A0A0A0" opacity="1.000000" stroke="none" 
	d="
M291.782532,239.611725 
	C286.321564,238.690033 285.728180,236.673615 289.530396,231.080765 
	C290.512146,233.756058 291.146606,236.497330 291.782532,239.611725 
z"/>
<path fill="#A0A0A0" opacity="1.000000" stroke="none" 
	d="
M292.011169,248.002167 
	C292.358215,247.114410 292.705231,246.226639 293.083405,244.953354 
	C294.041046,248.425430 294.967590,252.283005 295.888306,256.565491 
	C295.464813,256.993408 295.047150,256.996368 294.314148,256.600586 
	C293.995148,255.138321 293.991455,254.074753 293.987183,252.656525 
	C293.328705,251.531845 292.670837,250.761856 292.011108,249.660217 
	C292.009918,248.886444 292.010529,248.444305 292.011169,248.002167 
z"/>
<path fill="#A0A0A0" opacity="1.000000" stroke="none" 
	d="
M296.434814,267.420715 
	C295.885040,264.882507 295.658112,262.199615 295.716492,259.257904 
	C296.253723,261.758087 296.505676,264.517059 296.434814,267.420715 
z"/>
<path fill="#989898" opacity="1.000000" stroke="none" 
	d="
M298.461761,276.607056 
	C298.023407,275.767517 297.728699,274.609375 297.672058,273.248749 
	C298.141846,274.126984 298.373627,275.207703 298.461761,276.607056 
z"/>
<path fill="#989898" opacity="1.000000" stroke="none" 
	d="
M242.305603,409.977722 
	C242.156433,408.930542 242.272827,407.732269 242.652252,406.289032 
	C242.800583,407.304901 242.685867,408.565796 242.305603,409.977722 
z"/>
<path fill="#989898" opacity="1.000000" stroke="none" 
	d="
M215.900330,273.294220 
	C216.119232,273.950348 216.148056,274.857483 215.927048,275.847168 
	C215.688232,275.134888 215.699249,274.340027 215.900330,273.294220 
z"/>
<path fill="#AFAFAF" opacity="1.000000" stroke="none" 
	d="
M280.081390,474.300201 
	C280.764984,474.022675 281.594177,474.016785 282.840637,474.033752 
	C282.247589,474.228333 281.237305,474.400085 280.081390,474.300201 
z"/>
<path fill="#AFAFAF" opacity="1.000000" stroke="none" 
	d="
M230.833099,474.347961 
	C231.573257,474.038879 232.404358,474.021179 233.649811,474.015991 
	C233.017441,474.232117 231.970749,474.435699 230.833099,474.347961 
z"/>
<path fill="#989898" opacity="1.000000" stroke="none" 
	d="
M241.070435,421.797821 
	C240.782578,421.421204 240.635056,420.873901 240.699280,420.184143 
	C241.010956,420.570190 241.110855,421.098663 241.070435,421.797821 
z"/>
<path fill="#989898" opacity="1.000000" stroke="none" 
	d="
M242.066818,413.796570 
	C241.778931,413.419952 241.632645,412.873627 241.697495,412.185150 
	C242.008560,412.570984 242.108505,413.098907 242.066818,413.796570 
z"/>
<path fill="#A0A0A0" opacity="1.000000" stroke="none" 
	d="
M292.916138,242.682526 
	C292.623383,242.512543 292.333038,242.058975 292.015808,241.323242 
	C292.298798,241.493683 292.608704,241.946289 292.916138,242.682526 
z"/>
<path fill="#AFAFAF" opacity="1.000000" stroke="none" 
	d="
M228.857697,473.477417 
	C229.108734,473.349030 229.533600,473.410980 229.975677,473.727600 
	C229.672424,473.877441 229.351959,473.772614 228.857697,473.477417 
z"/>
<path fill="#AFAFAF" opacity="1.000000" stroke="none" 
	d="
M284.253296,474.006378 
	C284.168945,473.554779 284.330933,473.127899 284.492920,472.700989 
	C284.647125,472.962585 284.801300,473.224213 284.973724,473.732361 
	C284.991943,473.978912 284.499603,474.031067 284.253296,474.006378 
z"/>
<path fill="#989898" opacity="1.000000" stroke="none" 
	d="
M241.262238,417.028534 
	C241.081268,416.803619 241.226715,416.520630 241.674164,416.162415 
	C241.752090,416.332825 241.622894,416.627258 241.262238,417.028534 
z"/>
<path fill="#989898" opacity="1.000000" stroke="none" 
	d="
M240.261612,425.022461 
	C240.081528,424.794434 240.229050,424.513519 240.677643,424.159485 
	C240.755142,424.331543 240.625305,424.625885 240.261612,425.022461 
z"/>
<path fill="#989898" opacity="1.000000" stroke="none" 
	d="
M244.265213,399.040741 
	C244.081467,398.818359 244.224609,398.530701 244.673737,398.165070 
	C244.752899,398.334625 244.623688,398.630737 244.265213,399.040741 
z"/>
<path fill="#989898" opacity="1.000000" stroke="none" 
	d="
M245.261383,394.033630 
	C245.080872,393.813354 245.223633,393.529144 245.667603,393.166992 
	C245.745422,393.334717 245.617371,393.628235 245.261383,394.033630 
z"/>
<path fill="#989898" opacity="1.000000" stroke="none" 
	d="
M245.829285,379.706482 
	C245.543884,379.831543 245.318405,379.624054 245.097733,379.108246 
	C245.362137,378.972626 245.624359,379.163940 245.829285,379.706482 
z"/>
<path fill="#989898" opacity="1.000000" stroke="none" 
	d="
M216.787781,269.014069 
	C216.912338,269.306854 216.757507,269.553162 216.328766,269.855072 
	C216.134888,269.960999 216.072464,269.490601 216.131165,269.260681 
	C216.189850,269.030731 216.588425,269.017914 216.787781,269.014069 
z"/>
<path fill="#BBBBBB" opacity="1.000000" stroke="none" 
	d="
M339.708984,144.135651 
	C339.928528,144.203934 339.586975,144.520752 339.586975,144.520752 
	C339.586975,144.520752 339.174103,144.382568 339.102112,144.235413 
	C339.030151,144.088242 339.489471,144.067368 339.708984,144.135651 
z"/>
<path fill="#989898" opacity="1.000000" stroke="none" 
	d="
M297.837036,269.700409 
	C297.550354,269.838104 297.309509,269.629639 297.043610,269.110565 
	C297.231567,269.071472 297.519714,269.256226 297.837036,269.700409 
z"/>
<path fill="#989898" opacity="1.000000" stroke="none" 
	d="
M215.170807,281.290588 
	C215.269592,281.078003 215.556992,281.436707 215.556992,281.436707 
	C215.556992,281.436707 215.398911,281.837616 215.252167,281.904236 
	C215.105438,281.970856 215.072037,281.503174 215.170807,281.290588 
z"/>
<path fill="#BBBBBB" opacity="1.000000" stroke="none" 
	d="
M174.741394,144.077759 
	C174.970703,144.088318 174.696838,144.476608 174.696838,144.476608 
	C174.696838,144.476608 174.260361,144.464706 174.166962,144.333908 
	C174.073578,144.203110 174.512085,144.067184 174.741394,144.077759 
z"/>
<path fill="#B4B4B4" opacity="1.000000" stroke="none" 
	d="
M293.591064,163.988342 
	C292.165344,166.192352 290.360565,168.399490 287.930237,170.837830 
	C284.535553,173.377731 281.766449,175.686432 278.997345,177.995117 
	C278.554565,177.997421 278.111816,177.999710 276.941040,178.008423 
	C273.527893,179.227249 270.842773,180.439636 268.157623,181.652039 
	C270.381958,183.743927 272.324646,186.311844 274.889069,187.828873 
	C280.268433,191.011093 281.519135,193.747498 278.669464,199.299683 
	C277.556305,201.468491 275.991974,203.547760 274.201721,205.200500 
	C268.782684,210.203308 267.825867,216.161865 269.844940,222.895920 
	C271.801605,229.421921 270.398254,233.223557 264.560364,237.254669 
	C262.598114,238.609604 260.758636,240.142349 258.877960,241.582428 
	C265.383545,250.312546 267.439209,250.832031 276.153229,246.421021 
	C282.826141,243.043213 287.968353,245.217789 289.883209,252.332001 
	C290.437622,254.391861 290.502075,256.585876 291.085510,258.634583 
	C291.341187,259.532471 292.335327,260.220062 292.994141,261.003143 
	C292.995667,262.716248 292.997162,264.429352 292.617432,266.650940 
	C291.822662,268.142944 291.293182,269.094788 291.014191,270.115112 
	C289.034546,277.354889 287.250458,284.652924 285.048187,291.823120 
	C284.567474,293.388367 282.651428,294.512726 281.396423,295.840149 
	C280.495361,294.374207 279.558563,292.928497 278.711700,291.431885 
	C278.393890,290.870178 278.220947,290.203217 278.090759,289.562164 
	C276.253448,280.513519 270.829895,277.624817 261.998779,281.008362 
	C258.879700,281.023865 255.760635,281.039368 252.072235,280.750732 
	C247.879074,279.694550 244.680573,278.820343 240.806488,281.232117 
	C236.135742,284.139832 236.508362,288.664368 234.905243,292.627228 
	C234.412582,293.845062 233.388382,295.238495 232.271576,295.658936 
	C231.654221,295.891357 229.772095,294.465363 229.434647,293.459869 
	C227.460693,287.578003 225.812729,281.587708 223.975433,275.658569 
	C223.072495,272.744690 221.998840,269.883698 221.002441,266.998779 
	C221.002701,265.285645 221.002960,263.572540 221.380722,261.352234 
	C222.203461,259.361481 222.817795,257.905701 223.067474,256.389862 
	C225.289261,242.901321 233.066986,242.419662 241.029358,248.403702 
	C243.590805,250.328705 246.135284,250.554001 248.647446,248.200058 
	C250.771057,246.210220 252.980225,244.311707 255.751312,241.837189 
	C252.967468,239.862976 250.806244,238.445526 248.772949,236.863602 
	C244.923599,233.868790 241.798645,230.236069 243.578186,225.027664 
	C246.392136,216.791687 245.089935,210.145889 238.697922,203.784332 
	C235.995682,201.094971 234.764267,196.240219 234.409531,192.232910 
	C234.275848,190.723053 238.638687,188.966354 240.716095,187.064758 
	C242.593002,185.346695 244.148590,183.277603 245.845886,181.363297 
	C243.870804,180.396942 241.929016,179.351410 239.905273,178.500885 
	C239.021698,178.129547 237.970306,178.157593 236.663086,178.002808 
	C235.888321,177.999283 235.445572,177.997192 234.952194,177.654663 
	C231.600845,174.876282 228.300125,172.438385 224.794052,169.737961 
	C223.726685,169.316147 222.864655,169.156845 222.002625,168.997559 
	C222.002625,168.997559 222.000000,169.000000 222.003540,168.624695 
	C222.003723,167.500809 222.000336,166.752243 221.998093,165.669235 
	C222.000504,164.888855 222.001770,164.442902 222.003052,163.996948 
	C224.418884,165.914734 227.095352,167.584686 229.200180,169.798218 
	C234.817795,175.705917 241.289078,177.377625 249.061234,174.967926 
	C250.495377,174.523300 252.303955,175.286316 253.939697,175.491913 
	C253.670242,177.106918 253.947525,179.206970 253.027115,180.244492 
	C250.439148,183.161758 247.518524,185.847412 244.436630,188.249161 
	C238.748947,192.681610 238.302765,196.695679 243.421982,201.895218 
	C247.557922,206.096069 251.115005,211.091248 258.362427,210.101334 
	C263.344574,209.420837 273.154480,201.227997 273.975403,196.298843 
	C274.645203,192.277222 271.915100,190.363052 269.382660,188.154465 
	C266.307587,185.472641 263.284515,182.700317 260.534851,179.696289 
	C259.773376,178.864349 259.434235,176.452850 260.015869,175.860535 
	C260.916138,174.943710 263.020569,174.282455 264.187225,174.701614 
	C272.997284,177.866928 279.922028,175.306580 286.037964,168.628052 
	C287.898499,166.596420 290.791748,165.510513 293.591064,163.988342 
z"/>
<path fill="#C3C3C3" opacity="1.000000" stroke="none" 
	d="
M225.136688,134.999298 
	C236.099976,136.054977 246.582214,137.124023 257.068817,138.148422 
	C258.328796,138.271500 259.628784,138.282303 260.882385,138.124176 
	C268.866486,137.117096 276.835052,135.983353 284.824951,135.026932 
	C288.757416,134.556198 292.728119,134.414719 296.675171,134.054535 
	C301.936462,133.574402 304.702484,137.222580 308.395264,141.117020 
	C306.080444,143.102768 303.874420,144.933640 301.736359,146.840759 
	C295.057648,152.798004 288.285858,158.658112 281.775543,164.794937 
	C275.434692,170.771988 272.488251,171.187912 265.495026,166.276321 
	C260.998535,163.118271 252.284561,163.398010 247.721375,166.846954 
	C242.836868,170.538727 239.142990,170.857117 234.827042,167.163116 
	C225.765808,159.407654 216.916397,151.404388 208.004013,143.475906 
	C207.286804,142.837875 206.753876,141.992706 205.874023,140.927444 
	C209.810959,136.535141 213.349670,132.192947 220.194794,134.798874 
	C221.516113,135.301880 223.161209,134.954376 225.136688,134.999298 
M275.975433,160.509354 
	C275.229645,160.859680 274.366882,161.073853 273.764618,161.591232 
	C272.782776,162.434723 271.970978,163.476135 271.087433,164.434052 
	C271.974152,164.966278 273.188171,166.159775 273.688843,165.911972 
	C275.492645,165.019226 277.055969,163.640579 278.710114,162.445480 
	C278.033539,161.703308 277.356934,160.961136 275.975433,160.509354 
M240.120209,161.500641 
	C238.580338,161.035248 237.040466,160.569870 235.500595,160.104477 
	C235.165131,160.623413 234.829681,161.142334 234.494217,161.661270 
	C236.048126,163.081451 237.449265,164.764633 239.227921,165.797974 
	C239.985031,166.237823 241.531937,165.318237 242.719925,165.016434 
	C242.092712,163.946457 241.465515,162.876465 240.120209,161.500641 
M254.391571,152.736786 
	C255.235779,154.130981 256.079987,155.525162 256.924194,156.919342 
	C257.935699,156.052658 259.825653,155.165497 259.806030,154.322830 
	C259.723053,150.760437 256.982666,152.153763 254.391571,152.736786 
z"/>
<path fill="#AFAFAF" opacity="1.000000" stroke="none" 
	d="
M400.002594,155.994507 
	C402.370514,155.993484 404.738464,155.992477 407.885559,155.994171 
	C409.112061,155.992859 409.559418,155.988800 410.006744,155.984741 
	C413.115021,156.271484 417.155762,152.599548 419.065674,158.473709 
	C408.044159,159.562241 396.990356,160.287979 385.079407,161.007645 
	C382.813538,161.665283 381.404755,162.329025 379.996002,162.992752 
	C378.608246,162.995850 377.220459,162.998932 375.165955,162.721939 
	C372.661438,162.951263 370.823639,163.460678 368.985870,163.970108 
	C366.177429,163.342331 363.395538,162.525711 360.554993,162.126099 
	C354.652710,161.295715 348.682526,160.903244 342.812256,159.906693 
	C339.165283,159.287552 335.650330,157.890869 332.019592,156.474701 
	C332.436859,155.753983 332.910645,155.401749 333.693420,155.022003 
	C335.745087,155.321701 337.487732,155.648895 339.860413,156.261337 
	C341.993652,156.696548 343.496826,156.846512 345.205322,157.260635 
	C346.277344,157.678833 347.144104,157.832870 348.428467,157.988373 
	C351.563690,157.662689 354.281281,157.335541 357.084991,157.396042 
	C361.541840,159.877609 371.957947,158.255173 375.237610,154.732193 
	C383.648682,154.970352 391.825623,155.482437 400.002594,155.994507 
z"/>
<path fill="#A6A6A6" opacity="1.000000" stroke="none" 
	d="
M94.291672,158.300629 
	C97.047279,157.337189 100.093987,156.670990 103.903564,156.007874 
	C105.110954,156.007294 105.555481,156.003647 106.000000,156.000000 
	C106.000000,156.000000 106.493622,156.010696 106.834343,156.407715 
	C108.840622,157.203476 110.486664,157.806107 112.174919,157.967712 
	C122.833588,158.988113 133.500381,159.924957 144.167984,160.849182 
	C145.648117,160.977432 147.166641,161.044098 148.634781,160.867752 
	C159.098267,159.610962 169.553284,158.283615 180.010986,156.978729 
	C181.507370,156.835861 183.003769,156.693008 185.147644,156.277618 
	C187.861679,156.333603 189.928207,156.662109 192.351334,156.959564 
	C197.078064,155.421539 200.229416,149.786591 205.997437,153.002869 
	C206.000000,153.000244 205.994339,153.006714 206.043076,153.343887 
	C207.394333,154.454453 208.696869,155.227844 210.216446,156.268860 
	C211.289917,157.689987 212.146317,158.843460 213.002731,159.996948 
	C211.207184,159.371887 209.041290,159.179596 207.696014,158.028366 
	C205.181854,155.876862 203.077209,155.430618 200.100998,157.174210 
	C198.212463,158.280594 195.757645,158.945801 193.565598,158.923950 
	C178.596313,158.774734 163.898087,160.462799 149.220947,163.521408 
	C143.576935,164.697571 137.354874,163.532837 131.448364,162.926468 
	C119.141411,161.663040 106.869225,160.060867 94.291672,158.300629 
z"/>
<path fill="#B4B4B4" opacity="1.000000" stroke="none" 
	d="
M180.008667,156.646423 
	C169.553284,158.283615 159.098267,159.610962 148.634781,160.867752 
	C147.166641,161.044098 145.648117,160.977432 144.167984,160.849182 
	C133.500381,159.924957 122.833588,158.988113 112.174919,157.967712 
	C110.486664,157.806107 108.840622,157.203476 107.081207,156.409668 
	C109.031013,156.006943 111.074677,155.999298 114.024704,155.994522 
	C120.256615,155.945068 125.583885,155.783340 130.907288,155.867371 
	C137.951843,155.978592 144.999634,156.576843 152.034515,156.426559 
	C160.362625,156.248627 168.678467,155.496384 176.999619,154.993088 
	C177.749435,154.992874 178.499252,154.992676 179.623932,154.988007 
	C180.001297,155.427078 180.003830,155.870590 180.008667,156.646423 
z"/>
<path fill="#AFAFAF" opacity="1.000000" stroke="none" 
	d="
M295.233276,163.742935 
	C294.845337,164.007492 294.673157,164.002548 294.242554,163.989227 
	C291.561676,159.039627 296.517487,158.248703 298.712128,156.468719 
	C302.230530,153.615158 306.462555,151.641495 311.109314,149.148712 
	C314.549652,150.001511 317.273590,151.001556 319.997559,152.001602 
	C320.099243,152.324478 320.286835,152.585693 320.820984,153.214554 
	C321.722687,154.094467 322.363739,154.545029 323.004791,154.995590 
	C323.448181,154.995789 323.891541,154.995972 324.902649,155.272278 
	C326.673767,155.717987 327.877167,155.887589 329.080566,156.057190 
	C328.808868,160.849777 325.090637,158.333344 322.398743,158.680603 
	C318.646362,156.519089 315.362518,154.664032 312.078705,152.808990 
	C311.874573,153.244247 311.670471,153.679489 311.466370,154.114746 
	C312.309937,155.072678 313.153534,156.030609 313.997101,156.988556 
	C311.936401,156.662659 309.875732,156.336746 307.068268,156.040894 
	C304.879944,157.378815 303.438354,158.686661 301.996765,159.994507 
	C299.814209,161.154129 297.631653,162.313782 295.233276,163.742935 
z"/>
<path fill="#B4B4B4" opacity="1.000000" stroke="none" 
	d="
M191.994751,156.990616 
	C189.928207,156.662109 187.861679,156.333603 185.396179,156.000122 
	C185.082825,155.680542 185.123337,155.112442 185.260544,155.088028 
	C190.415802,154.171112 193.653641,151.091660 197.033310,147.078949 
	C199.596710,144.035355 202.566574,148.252655 204.950775,150.653412 
	C205.000198,150.999802 204.999390,151.000610 204.634155,150.961700 
	C201.972336,150.671936 199.099152,149.454239 197.515518,150.398758 
	C195.191467,151.784866 193.789566,154.717133 191.994751,156.990616 
z"/>
<path fill="#B4B4B4" opacity="1.000000" stroke="none" 
	d="
M213.248199,160.001984 
	C212.146317,158.843460 211.289917,157.689987 210.216888,155.934921 
	C210.000793,154.888092 210.001312,154.442825 210.001831,153.997574 
	C213.420593,154.639572 216.639526,155.548737 216.878159,159.804718 
	C215.497238,160.006790 214.740906,160.011780 213.984573,160.016769 
	C213.984573,160.016769 213.493652,160.007034 213.248199,160.001984 
z"/>
<path fill="#B4B4B4" opacity="1.000000" stroke="none" 
	d="
M319.963074,151.642731 
	C317.273590,151.001556 314.549652,150.001511 311.413452,149.001038 
	C315.549316,144.607559 317.078613,144.998688 319.963074,151.642731 
z"/>
<path fill="#AFAFAF" opacity="1.000000" stroke="none" 
	d="
M221.709747,163.856812 
	C222.001770,164.442902 222.000504,164.888855 221.662994,165.668915 
	C220.879669,166.005829 220.432602,166.008621 219.985535,166.011398 
	C219.103470,165.179718 218.221405,164.348038 217.281219,163.037521 
	C217.492706,162.369537 217.762329,162.180405 218.031937,161.991272 
	C219.160095,162.566406 220.288254,163.141541 221.709747,163.856812 
z"/>
<path fill="#B4B4B4" opacity="1.000000" stroke="none" 
	d="
M329.400269,156.054367 
	C327.877167,155.887589 326.673767,155.717987 325.235168,155.272293 
	C326.867157,155.152069 328.734314,155.307938 330.801575,155.750885 
	C330.574432,156.042496 330.147186,156.047012 329.400269,156.054367 
z"/>
<path fill="#AFAFAF" opacity="1.000000" stroke="none" 
	d="
M209.742889,153.890869 
	C210.001312,154.442825 210.000793,154.888092 209.999817,155.667282 
	C208.696869,155.227844 207.394333,154.454453 206.378143,153.341248 
	C207.111160,152.999496 207.557831,152.997559 208.004517,152.995605 
	C208.497665,153.258469 208.990814,153.521332 209.742889,153.890869 
z"/>
<path fill="#A6A6A6" opacity="1.000000" stroke="none" 
	d="
M217.916931,161.735214 
	C217.762329,162.180405 217.492706,162.369537 217.109268,162.781525 
	C216.015884,162.234421 215.036331,161.464447 214.020676,160.355621 
	C214.740906,160.011780 215.497238,160.006790 216.631805,160.000595 
	C217.274002,160.492645 217.537979,160.985901 217.916931,161.735214 
z"/>
<path fill="#B4B4B4" opacity="1.000000" stroke="none" 
	d="
M207.950592,152.651703 
	C207.557831,152.997559 207.111160,152.999496 206.329407,153.004074 
	C205.994339,153.006714 206.000000,153.000244 205.892929,152.742432 
	C205.523712,151.989944 205.261551,151.495270 204.999390,151.000610 
	C204.999390,151.000610 205.000198,150.999802 205.003143,150.996857 
	C205.969620,151.431854 206.933151,151.869812 207.950592,152.651703 
z"/>
<path fill="#B4B4B4" opacity="1.000000" stroke="none" 
	d="
M322.962280,154.675079 
	C322.363739,154.545029 321.722687,154.094467 321.040222,153.322861 
	C321.639099,153.452744 322.279419,153.903656 322.962280,154.675079 
z"/>
<path fill="#AFAFAF" opacity="1.000000" stroke="none" 
	d="
M236.995117,178.004272 
	C237.970306,178.157593 239.021698,178.129547 239.905273,178.500885 
	C241.929016,179.351410 243.870804,180.396942 245.845886,181.363297 
	C244.148590,183.277603 242.593002,185.346695 240.716095,187.064758 
	C238.638687,188.966354 234.275848,190.723053 234.409531,192.232910 
	C234.764267,196.240219 235.995682,201.094971 238.697922,203.784332 
	C245.089935,210.145889 246.392136,216.791687 243.578186,225.027664 
	C241.798645,230.236069 244.923599,233.868790 248.772949,236.863602 
	C250.806244,238.445526 252.967468,239.862976 255.751312,241.837189 
	C252.980225,244.311707 250.771057,246.210220 248.647446,248.200058 
	C246.135284,250.554001 243.590805,250.328705 241.029358,248.403702 
	C233.066986,242.419662 225.289261,242.901321 223.067474,256.389862 
	C222.817795,257.905701 222.203461,259.361481 221.381866,260.924103 
	C220.851562,259.822693 220.697632,258.642242 220.270401,257.230621 
	C220.001190,255.935898 220.005264,254.872360 220.354065,253.352600 
	C221.128235,251.928192 221.557709,250.960037 221.987183,249.991867 
	C221.988510,249.549057 221.989853,249.106262 222.264954,248.136902 
	C224.079697,245.712540 225.310623,243.376434 227.232407,242.016876 
	C230.322906,239.830521 230.978439,237.672897 229.637390,234.090332 
	C226.898071,226.772385 228.362869,222.170258 234.535431,217.754272 
	C238.140900,215.174805 238.332458,212.916443 235.836121,209.096573 
	C232.987427,204.737534 230.971878,199.730179 229.245651,194.777542 
	C228.071396,191.408524 228.814850,188.344528 233.293823,187.246460 
	C235.754730,186.643127 237.932755,184.885880 240.056778,183.746307 
	C238.674026,181.153015 237.834579,179.578644 236.995117,178.004272 
z"/>
<path fill="#AFAFAF" opacity="1.000000" stroke="none" 
	d="
M292.996826,260.636658 
	C292.335327,260.220062 291.341187,259.532471 291.085510,258.634583 
	C290.502075,256.585876 290.437622,254.391861 289.883209,252.332001 
	C287.968353,245.217789 282.826141,243.043213 276.153229,246.421021 
	C267.439209,250.832031 265.383545,250.312546 258.877960,241.582428 
	C260.758636,240.142349 262.598114,238.609604 264.560364,237.254669 
	C270.398254,233.223557 271.801605,229.421921 269.844940,222.895920 
	C267.825867,216.161865 268.782684,210.203308 274.201721,205.200500 
	C275.991974,203.547760 277.556305,201.468491 278.669464,199.299683 
	C281.519135,193.747498 280.268433,191.011093 274.889069,187.828873 
	C272.324646,186.311844 270.381958,183.743927 268.157623,181.652039 
	C270.842773,180.439636 273.527893,179.227249 276.608948,178.009552 
	C276.165466,179.578690 275.326019,181.153107 273.943329,183.746399 
	C276.067352,184.885956 278.245453,186.643265 280.706482,187.246613 
	C285.185852,188.344772 285.928436,191.409348 284.754303,194.778061 
	C283.028046,199.730804 281.012238,204.738174 278.163391,209.097214 
	C275.666443,212.917770 275.860474,215.175751 279.465485,217.754791 
	C285.637054,222.169922 287.101837,226.772888 284.362030,234.091629 
	C283.020386,237.675430 283.679474,239.831573 286.769012,242.017624 
	C288.690735,243.377365 289.921387,245.713776 291.736694,247.807007 
	C292.010529,248.444305 292.009918,248.886444 292.011658,250.014572 
	C292.671967,251.470779 293.329865,252.240997 293.987793,253.011200 
	C293.991455,254.074753 293.995148,255.138321 294.000671,256.600647 
	C293.668182,258.089691 293.333862,259.179962 292.996826,260.636658 
z"/>
<path fill="#AFAFAF" opacity="1.000000" stroke="none" 
	d="
M221.000351,267.465668 
	C221.998840,269.883698 223.072495,272.744690 223.975433,275.658569 
	C225.812729,281.587708 227.460693,287.578003 229.434647,293.459869 
	C229.772095,294.465363 231.654221,295.891357 232.271576,295.658936 
	C233.388382,295.238495 234.412582,293.845062 234.905243,292.627228 
	C236.508362,288.664368 236.135742,284.139832 240.806488,281.232117 
	C244.680573,278.820343 247.879074,279.694550 251.752075,280.727448 
	C250.347824,281.664490 248.747498,282.584991 247.031494,282.929840 
	C240.570724,284.228210 238.624771,286.411774 241.243744,292.431366 
	C244.474518,299.857117 241.561584,305.119965 237.290970,310.492340 
	C234.445892,314.071411 231.545380,314.308319 229.887131,310.074860 
	C226.722610,301.995911 224.083847,293.629852 222.174789,285.169128 
	C220.922195,279.617737 221.332611,273.691132 221.000351,267.465668 
z"/>
<path fill="#AFAFAF" opacity="1.000000" stroke="none" 
	d="
M262.244629,281.285065 
	C270.829895,277.624817 276.253448,280.513519 278.090759,289.562164 
	C278.220947,290.203217 278.393890,290.870178 278.711700,291.431885 
	C279.558563,292.928497 280.495361,294.374207 281.396423,295.840149 
	C282.651428,294.512726 284.567474,293.388367 285.048187,291.823120 
	C287.250458,284.652924 289.034546,277.354889 291.014191,270.115112 
	C291.293182,269.094788 291.822662,268.142944 292.616882,267.079102 
	C293.742218,279.913116 291.458405,292.392273 286.874481,304.374817 
	C285.643768,307.591949 282.646515,310.133362 280.460236,312.984955 
	C277.983459,310.348633 275.072052,307.991760 273.148376,304.999817 
	C271.098358,301.811371 270.685669,298.333099 272.164062,294.184906 
	C274.886505,286.545959 274.343536,284.149963 266.295441,282.600647 
	C265.008179,282.352844 263.757843,281.912872 262.244629,281.285065 
z"/>
<path fill="#A6A6A6" opacity="1.000000" stroke="none" 
	d="
M313.999146,156.994827 
	C313.153534,156.030609 312.309937,155.072678 311.466370,154.114746 
	C311.670471,153.679489 311.874573,153.244247 312.078705,152.808990 
	C315.362518,154.664032 318.646362,156.519089 321.969849,158.678131 
	C320.936951,158.988617 319.864349,158.995102 318.200531,158.731140 
	C316.410248,157.973602 315.211243,157.486511 314.012207,156.999405 
	C314.012207,156.999405 314.001221,157.001099 313.999146,156.994827 
z"/>
<path fill="#A6A6A6" opacity="1.000000" stroke="none" 
	d="
M302.362488,159.994812 
	C303.438354,158.686661 304.879944,157.378815 306.670593,156.043503 
	C305.589203,157.342392 304.158722,158.668747 302.362488,159.994812 
z"/>
<path fill="#A6A6A6" opacity="1.000000" stroke="none" 
	d="
M369.391541,163.981293 
	C370.823639,163.460678 372.661438,162.951263 374.749603,162.720612 
	C373.265717,163.330414 371.531464,163.661438 369.391541,163.981293 
z"/>
<path fill="#A6A6A6" opacity="1.000000" stroke="none" 
	d="
M380.392059,162.997894 
	C381.404755,162.329025 382.813538,161.665283 384.619934,161.008331 
	C383.607727,161.677750 382.197937,162.340393 380.392059,162.997894 
z"/>
<path fill="#AFAFAF" opacity="1.000000" stroke="none" 
	d="
M420.323547,158.939972 
	C422.275726,156.969986 424.328857,155.998993 425.033722,160.576065 
	C423.591431,160.280441 422.133575,159.631393 420.323547,158.939972 
z"/>
<path fill="#AFAFAF" opacity="1.000000" stroke="none" 
	d="
M314.046753,157.341949 
	C315.211243,157.486511 316.410248,157.973602 317.798523,158.724701 
	C316.685608,158.553955 315.383423,158.119217 314.046753,157.341949 
z"/>
<path fill="#A6A6A6" opacity="1.000000" stroke="none" 
	d="
M236.663086,178.002808 
	C237.834579,179.578644 238.674026,181.153015 240.056778,183.746307 
	C237.932755,184.885880 235.754730,186.643127 233.293823,187.246460 
	C228.814850,188.344528 228.071396,191.408524 229.245651,194.777542 
	C230.971878,199.730179 232.987427,204.737534 235.836121,209.096573 
	C238.332458,212.916443 238.140900,215.174805 234.535431,217.754272 
	C228.362869,222.170258 226.898071,226.772385 229.637390,234.090332 
	C230.978439,237.672897 230.322906,239.830521 227.232407,242.016876 
	C225.310623,243.376434 224.079697,245.712540 222.264175,247.804794 
	C221.997635,245.939957 222.005615,243.880692 222.035858,241.437988 
	C226.269135,239.658051 227.373962,237.253296 226.313492,232.656876 
	C225.440735,228.874069 226.529129,224.654907 226.635300,220.626144 
	C226.772446,215.421921 227.067612,210.200409 226.793350,205.012848 
	C226.524033,199.918686 225.358780,194.867615 225.170929,189.776093 
	C225.115540,188.275238 226.705063,185.907364 228.124359,185.299484 
	C233.943085,182.807358 234.198776,182.132996 229.424957,177.996643 
	C228.942993,177.579041 228.276306,177.374634 227.344666,177.038208 
	C225.352295,174.571960 223.710571,172.138779 222.035736,169.351593 
	C222.864655,169.156845 223.726685,169.316147 224.828156,170.084549 
	C228.379349,173.127487 231.691086,175.561295 235.002823,177.995117 
	C235.445572,177.997192 235.888321,177.999283 236.663086,178.002808 
z"/>
<path fill="#A6A6A6" opacity="1.000000" stroke="none" 
	d="
M220.013016,166.332275 
	C220.432602,166.008621 220.879669,166.005829 221.661835,166.003357 
	C222.000336,166.752243 222.003723,167.500809 222.004761,168.623688 
	C221.348465,168.216370 220.694473,167.434753 220.013016,166.332275 
z"/>
<path fill="#B4B4B4" opacity="1.000000" stroke="none" 
	d="
M89.294785,159.920151 
	C89.449539,159.321182 89.928207,158.700821 90.732956,158.061554 
	C90.578918,158.661346 90.098808,159.280045 89.294785,159.920151 
z"/>
<path fill="#BBBBBB" opacity="1.000000" stroke="none" 
	d="
M176.704926,154.697357 
	C168.678467,155.496384 160.362625,156.248627 152.034515,156.426559 
	C144.999634,156.576843 137.951843,155.978592 130.907288,155.867371 
	C125.583885,155.783340 120.256615,155.945068 114.462189,155.993454 
	C117.054794,155.002609 120.058807,153.471664 123.189590,153.141006 
	C129.903427,152.431931 136.700089,151.863525 143.431259,152.107758 
	C154.437500,152.507111 165.418564,153.600800 176.704926,154.697357 
z"/>
<path fill="#BBBBBB" opacity="1.000000" stroke="none" 
	d="
M105.962730,155.700653 
	C105.555481,156.003647 105.110954,156.007294 104.333069,156.004852 
	C104.233330,155.479965 104.466965,154.961136 104.700592,154.442322 
	C105.108879,154.761978 105.517166,155.081635 105.962730,155.700653 
z"/>
<path fill="#BBBBBB" opacity="1.000000" stroke="none" 
	d="
M399.919128,155.609955 
	C391.825623,155.482437 383.648682,154.970352 374.799377,154.729507 
	C372.082428,155.002365 370.037842,155.003998 367.824066,154.776581 
	C367.105286,155.031693 366.555695,155.515854 365.566223,155.999527 
	C362.417175,156.335480 359.708008,156.671921 356.998840,157.008377 
	C354.281281,157.335541 351.563690,157.662689 348.380890,157.665192 
	C346.943756,157.225861 345.971893,157.111160 345.000000,156.996460 
	C343.496826,156.846512 341.993652,156.696548 340.244659,156.262909 
	C340.795105,155.324829 341.555054,154.153061 342.393158,154.094208 
	C353.627380,153.305298 364.869049,152.241592 376.116211,152.150131 
	C383.681396,152.088577 391.259491,153.443588 398.825653,154.224792 
	C399.192841,154.262711 399.500336,154.878632 399.919128,155.609955 
z"/>
<path fill="#BBBBBB" opacity="1.000000" stroke="none" 
	d="
M409.966431,155.687531 
	C409.559418,155.988800 409.112061,155.992859 408.329193,155.991425 
	C408.229523,155.470718 408.465363,154.955475 408.701202,154.440216 
	C409.109497,154.756912 409.517792,155.073608 409.966431,155.687531 
z"/>
<path fill="#AFAFAF" opacity="1.000000" stroke="none" 
	d="
M239.310715,442.726501 
	C238.182877,441.716095 237.334564,440.439148 236.256638,438.816528 
	C235.179672,440.399841 234.396896,441.550629 233.306946,442.468811 
	C232.664597,440.824188 232.329422,439.412201 231.994263,438.000183 
	C231.995361,436.611511 231.996460,435.222839 231.995544,433.417633 
	C232.842285,431.459900 233.691040,429.918701 234.895355,427.731873 
	C239.285660,432.086273 240.203262,437.005188 239.310715,442.726501 
z"/>
<path fill="#A6A6A6" opacity="1.000000" stroke="none" 
	d="
M231.706512,438.276489 
	C232.329422,439.412201 232.664597,440.824188 233.004974,442.625305 
	C233.010162,443.014374 233.001968,443.506042 232.994568,443.751831 
	C232.485504,444.560944 231.983826,445.124329 231.236694,445.837585 
	C231.133759,443.509216 231.276276,441.031006 231.706512,438.276489 
z"/>
<path fill="#A6A6A6" opacity="1.000000" stroke="none" 
	d="
M283.994232,418.541779 
	C282.704254,417.558868 281.418274,416.108398 279.929626,414.429352 
	C278.933167,415.497803 277.810425,416.701630 276.348999,417.957458 
	C276.563171,408.470551 277.389618,398.906311 273.158875,389.844818 
	C272.966583,389.432983 272.897614,388.712433 273.127930,388.392151 
	C276.514191,383.683197 279.299713,378.241486 283.596863,374.580719 
	C287.220306,371.493896 290.066925,373.623535 289.927917,378.577393 
	C289.850189,381.346771 289.342163,384.192719 288.500580,386.836243 
	C285.260162,397.014923 283.504242,407.373535 283.994232,418.541779 
z"/>
<path fill="#A0A0A0" opacity="1.000000" stroke="none" 
	d="
M274.456909,430.534271 
	C274.423462,430.475586 274.490387,430.592957 274.456909,430.534271 
z"/>
<path fill="#AFAFAF" opacity="1.000000" stroke="none" 
	d="
M279.365479,177.993042 
	C281.766449,175.686432 284.535553,173.377731 287.652954,171.035080 
	C285.245331,173.331070 282.489471,175.661026 279.365479,177.993042 
z"/>
<path fill="#BBBBBB" opacity="1.000000" stroke="none" 
	d="
M245.669983,90.006912 
	C247.536575,89.841194 249.070831,89.673035 251.172913,89.249458 
	C255.841827,90.319366 252.088623,93.049004 252.776505,95.038803 
	C253.251297,96.412163 252.890396,99.207092 253.297623,99.284271 
	C255.649857,99.730057 258.155518,99.778046 260.517334,99.394600 
	C260.960083,99.322708 261.139984,96.689812 261.171967,95.232841 
	C261.231903,92.501106 261.095062,89.765068 261.250000,87.134438 
	C261.720215,87.431137 261.898071,87.682518 262.098877,88.213272 
	C262.405731,88.708008 262.670105,88.890793 263.195557,89.243980 
	C264.929108,89.671638 266.464386,89.838013 267.999664,90.004387 
	C268.559967,90.166573 269.120239,90.328758 269.843170,91.125252 
	C269.341522,94.177490 268.677246,96.595406 268.012970,99.013329 
	C268.006104,99.451988 267.999268,99.890648 267.624084,100.723442 
	C265.957062,102.055923 264.644318,103.814186 263.362091,103.792175 
	C257.480347,103.691177 251.143997,105.819633 246.017090,100.987259 
	C246.010422,100.548607 246.003754,100.109947 245.957458,98.964317 
	C245.281311,95.507545 244.644821,92.757744 244.008331,90.007950 
	C244.451431,90.006790 244.894531,90.005623 245.669983,90.006912 
z"/>
<path fill="#AFAFAF" opacity="1.000000" stroke="none" 
	d="
M246.048111,101.359375 
	C251.143997,105.819633 257.480347,103.691177 263.362091,103.792175 
	C264.644318,103.814186 265.957062,102.055923 267.619324,101.052444 
	C266.653473,105.052864 265.324097,109.118423 263.990295,113.587112 
	C263.762329,114.258598 263.538849,114.526962 262.726074,114.822159 
	C258.861481,108.489807 257.194702,108.259979 251.932617,113.351501 
	C251.518539,113.752159 250.758606,113.795387 250.159409,114.004723 
	C250.159409,114.004723 250.087479,113.994324 250.051498,113.990616 
	C248.703384,109.901764 247.391266,105.816628 246.048111,101.359375 
z"/>
<path fill="#AFAFAF" opacity="1.000000" stroke="none" 
	d="
M267.874146,89.705269 
	C266.464386,89.838013 264.929108,89.671638 263.085938,89.026825 
	C262.577148,88.277542 262.315643,88.092148 261.993561,87.992195 
	C261.898071,87.682518 261.720215,87.431137 261.127441,86.902046 
	C260.516602,86.362511 260.238281,86.158989 259.970764,85.626724 
	C259.985260,84.858749 259.988922,84.419502 260.325073,83.981934 
	C261.100677,83.977890 261.543823,83.972191 261.986938,83.966484 
	C262.852692,84.129639 263.718445,84.292793 264.790771,84.717545 
	C265.914398,86.454811 266.831512,87.930481 267.874146,89.705269 
z"/>
<path fill="#AFAFAF" opacity="1.000000" stroke="none" 
	d="
M268.362610,98.956619 
	C268.677246,96.595406 269.341522,94.177490 270.016541,91.367493 
	C274.534698,94.437645 270.350006,96.457443 268.362610,98.956619 
z"/>
<path fill="#AFAFAF" opacity="1.000000" stroke="none" 
	d="
M243.685913,90.170380 
	C244.644821,92.757744 245.281311,95.507545 245.952393,98.635330 
	C242.738525,96.837296 240.562927,94.337013 243.685913,90.170380 
z"/>
<path fill="#C0C0C0" opacity="1.000000" stroke="none" 
	d="
M262.039978,83.585358 
	C261.543823,83.972191 261.100677,83.977890 260.079224,83.710526 
	C257.669647,83.618362 255.838409,83.799271 254.007156,83.980171 
	C253.563904,83.980667 253.120636,83.981155 252.345215,83.974060 
	C251.574097,79.538162 250.311432,74.968857 251.035324,70.739571 
	C251.410736,68.546211 255.884079,65.041649 257.472565,65.525146 
	C260.062164,66.313347 263.034302,69.628929 263.593903,72.342339 
	C264.289795,75.716240 262.697296,79.562164 262.039978,83.585358 
z"/>
<path fill="#BBBBBB" opacity="1.000000" stroke="none" 
	d="
M250.305725,114.328156 
	C250.758606,113.795387 251.518539,113.752159 251.932617,113.351501 
	C257.194702,108.259979 258.861481,108.489807 262.480042,114.923004 
	C258.627350,117.466911 254.505920,117.269226 250.305725,114.328156 
z"/>
<path fill="#A6A6A6" opacity="1.000000" stroke="none" 
	d="
M259.959930,85.955460 
	C260.238281,86.158989 260.516602,86.362511 260.917511,86.798424 
	C261.095062,89.765068 261.231903,92.501106 261.171967,95.232841 
	C261.139984,96.689812 260.960083,99.322708 260.517334,99.394600 
	C258.155518,99.778046 255.649857,99.730057 253.297623,99.284271 
	C252.890396,99.207092 253.251297,96.412163 252.776505,95.038803 
	C252.088623,93.049004 255.841827,90.319366 251.370361,88.987869 
	C251.764236,87.985626 252.528488,86.989548 254.031586,86.060913 
	C254.952209,87.589882 255.153320,89.049339 255.311035,90.513458 
	C255.530807,92.553574 255.691376,94.601501 256.018188,96.623306 
	C256.031128,96.703300 258.153137,96.660248 258.182648,96.486229 
	C258.503662,94.594330 258.684326,92.666405 258.722931,90.744675 
	C258.738800,89.954590 257.972717,89.046806 258.180511,88.387321 
	C258.466400,87.479897 259.338806,86.757263 259.959930,85.955460 
z"/>
<path fill="#BBBBBB" opacity="1.000000" stroke="none" 
	d="
M259.970764,85.626724 
	C259.338806,86.757263 258.466400,87.479897 258.180511,88.387321 
	C257.972717,89.046806 258.738800,89.954590 258.722931,90.744675 
	C258.684326,92.666405 258.503662,94.594330 258.182648,96.486229 
	C258.153137,96.660248 256.031128,96.703300 256.018188,96.623306 
	C255.691376,94.601501 255.530807,92.553574 255.311035,90.513458 
	C255.153320,89.049339 254.952209,87.589882 254.405151,86.042130 
	C254.029816,85.517250 254.019760,85.078590 254.008423,84.310051 
	C255.838409,83.799271 257.669647,83.618362 259.746765,83.708862 
	C259.988922,84.419502 259.985260,84.858749 259.970764,85.626724 
z"/>
<path fill="#A6A6A6" opacity="1.000000" stroke="none" 
	d="
M221.643463,250.047699 
	C221.557709,250.960037 221.128235,251.928192 220.355637,252.953766 
	C220.441589,252.041946 220.870667,251.072739 221.643463,250.047699 
z"/>
<path fill="#A6A6A6" opacity="1.000000" stroke="none" 
	d="
M293.987183,252.656525 
	C293.329865,252.240997 292.671967,251.470779 292.013519,250.346222 
	C292.670837,250.761856 293.328705,251.531845 293.987183,252.656525 
z"/>
<path fill="#AFAFAF" opacity="1.000000" stroke="none" 
	d="
M234.952194,177.654648 
	C231.691086,175.561295 228.379349,173.127487 225.033508,170.347076 
	C228.300125,172.438385 231.600845,174.876282 234.952194,177.654648 
z"/>
<path fill="#FFFFFF" opacity="1.000000" stroke="none" 
	d="
M276.327881,160.364166 
	C277.356934,160.961136 278.033539,161.703308 278.710114,162.445496 
	C277.055969,163.640579 275.492645,165.019226 273.688843,165.911972 
	C273.188171,166.159775 271.974152,164.966278 271.087433,164.434052 
	C271.970978,163.476135 272.782776,162.434723 273.764618,161.591232 
	C274.366882,161.073853 275.229645,160.859680 276.327881,160.364166 
z"/>
<path fill="#FFFFFF" opacity="1.000000" stroke="none" 
	d="
M240.479248,161.653564 
	C241.465515,162.876465 242.092712,163.946457 242.719925,165.016434 
	C241.531937,165.318237 239.985031,166.237823 239.227921,165.797974 
	C237.449265,164.764633 236.048126,163.081451 234.494217,161.661270 
	C234.829681,161.142334 235.165131,160.623413 235.500595,160.104477 
	C237.040466,160.569870 238.580338,161.035248 240.479248,161.653564 
z"/>
<path fill="#FFFFFF" opacity="1.000000" stroke="none" 
	d="
M254.699005,152.481415 
	C256.982666,152.153763 259.723053,150.760437 259.806030,154.322830 
	C259.825653,155.165497 257.935699,156.052658 256.924194,156.919342 
	C256.079987,155.525162 255.235779,154.130981 254.699005,152.481415 
z"/>
<path fill="#B4B4B4" opacity="1.000000" stroke="none" 
	d="
M367.993256,155.005630 
	C370.037842,155.003998 372.082428,155.002365 374.565277,155.003418 
	C371.957947,158.255173 361.541840,159.877609 357.084991,157.396042 
	C359.708008,156.671921 362.417175,156.335480 365.862000,155.977966 
	C367.062866,155.639801 367.528046,155.322708 367.993256,155.005630 
z"/>
<path fill="#B4B4B4" opacity="1.000000" stroke="none" 
	d="
M345.205322,157.260620 
	C345.971893,157.111160 346.943756,157.225861 347.963257,157.663727 
	C347.144104,157.832870 346.277344,157.678833 345.205322,157.260620 
z"/>
<path fill="#AFAFAF" opacity="1.000000" stroke="none" 
	d="
M204.634155,150.961700 
	C205.261551,151.495270 205.523712,151.989944 205.890381,152.745056 
	C200.229416,149.786591 197.078064,155.421539 192.351334,156.959564 
	C193.789566,154.717133 195.191467,151.784866 197.515518,150.398758 
	C199.099152,149.454239 201.972336,150.671936 204.634155,150.961700 
z"/>
<path fill="#AFAFAF" opacity="1.000000" stroke="none" 
	d="
M367.824066,154.776581 
	C367.528046,155.322708 367.062866,155.639801 366.301880,155.978455 
	C366.555695,155.515854 367.105286,155.031693 367.824066,154.776581 
z"/>
<path fill="#A6A6A6" opacity="1.000000" stroke="none" 
	d="
M262.098877,88.213272 
	C262.315643,88.092148 262.577148,88.277542 262.887695,88.765549 
	C262.670105,88.890793 262.405731,88.708008 262.098877,88.213272 
z"/>
</svg>